<svg width="654" height="369" viewBox="0 0 654 369" fill="none" xmlns="http://www.w3.org/2000/svg">
<rect width="468.445" height="355.348" transform="matrix(0.989679 0.143301 -0.531417 0.847111 189.702 0.777832)" fill="#F2F2F2"/>
<path d="M309.423 46.4428L310.749 39.2026L312.257 39.4209L311.145 44.132C311.033 44.6262 310.899 45.1136 310.74 45.5943C311.48 44.9071 311.91 44.5114 312.03 44.4072L317.031 40.1121L318.804 40.3689L318.232 44.0478C318.095 44.9608 317.878 45.8065 317.583 46.585C317.994 46.1748 318.489 45.7073 319.066 45.1825L323.555 41.0568L325.033 41.2707L317.712 47.6431L316.295 47.438L317.211 41.9075C317.286 41.4452 317.337 41.1619 317.364 41.0576C317.051 41.3538 316.775 41.6045 316.536 41.8099L310.923 46.6601L309.423 46.4428Z" fill="black"/>
<path d="M322.183 48.2904L326.457 41.477L327.927 41.6898L326.172 44.4877L331.946 45.3238L333.701 42.5259L335.171 42.7387L330.897 49.5522L329.427 49.3393L331.441 46.1278L325.668 45.2918L323.653 48.5033L322.183 48.2904Z" fill="black"/>
<path d="M332.132 49.731L340.672 43.5353L342.256 43.7646L342.528 51.2363L340.853 50.9938L340.852 48.7427L336.207 48.0701L333.693 49.957L332.132 49.731ZM337.092 47.3972L340.858 47.9425L340.883 45.8877C340.889 45.2633 340.921 44.7543 340.981 44.3607C340.565 44.7771 340.094 45.182 339.566 45.5754L337.092 47.3972Z" fill="black"/>
<path d="M345.377 51.6488L349.147 45.6394L345.487 45.1095L345.991 44.3055L354.796 45.5804L354.292 46.3844L350.617 45.8523L346.847 51.8617L345.377 51.6488Z" fill="black"/>
<path d="M353.985 52.8952L362.525 46.6995L364.109 46.9288L364.381 54.4005L362.706 54.158L362.705 51.9069L358.06 51.2343L355.546 53.1212L353.985 52.8952ZM358.945 50.5614L362.711 51.1067L362.736 49.0519C362.742 48.4275 362.774 47.9185 362.834 47.5249C362.418 47.9413 361.947 48.3462 361.419 48.7396L358.945 50.5614Z" fill="black"/>
<path d="M365.578 54.5739L369.852 47.7604L374.778 48.4736C375.768 48.6169 376.482 48.7879 376.919 48.9864C377.359 49.1819 377.635 49.4568 377.749 49.8113C377.863 50.1657 377.802 50.5304 377.567 50.9053C377.264 51.3887 376.753 51.7592 376.035 52.0169C375.317 52.2745 374.396 52.3711 373.274 52.3066C373.591 52.4776 373.816 52.6335 373.948 52.7743C374.226 53.0781 374.443 53.4391 374.599 53.8572L375.368 55.9914L373.519 55.7237L372.938 54.0933C372.766 53.6221 372.608 53.258 372.467 53.0009C372.325 52.7438 372.17 52.5557 372.002 52.4368C371.839 52.3186 371.655 52.226 371.449 52.159C371.296 52.1131 371.03 52.0628 370.651 52.0079L368.946 51.7611L367.048 54.7867L365.578 54.5739ZM369.436 50.9803L372.596 51.4378C373.268 51.5351 373.819 51.5693 374.251 51.5405C374.684 51.5086 375.057 51.414 375.371 51.2566C375.687 51.0961 375.913 50.9059 376.051 50.6859C376.253 50.3637 376.228 50.071 375.974 49.8078C375.725 49.5453 375.189 49.3545 374.366 49.2353L370.85 48.7262L369.436 50.9803Z" fill="black"/>
<path d="M376.8 56.1987L381.074 49.3853L389.106 50.5483L388.602 51.3523L382.04 50.4022L380.731 52.489L386.876 53.3788L386.375 54.1782L380.229 53.2884L378.775 55.6076L385.594 56.595L385.09 57.399L376.8 56.1987Z" fill="black"/>
<path d="M394.281 58.7299L396.092 55.8437L394.274 51.2965L396.062 51.5555L396.963 53.9268C397.127 54.3695 397.262 54.8082 397.369 55.2429C397.926 54.9349 398.582 54.5921 399.337 54.2147L402.746 52.5232L404.458 52.7711L397.562 56.0565L395.751 58.9427L394.281 58.7299Z" fill="black"/>
<path d="M403.137 56.3923C403.846 55.2614 404.896 54.4485 406.287 53.9536C407.679 53.4555 409.159 53.3199 410.724 53.5467C411.75 53.6951 412.58 53.9793 413.215 54.399C413.85 54.8188 414.213 55.3294 414.304 55.9306C414.402 56.5296 414.237 57.1699 413.81 57.8515C413.376 58.5425 412.761 59.1277 411.965 59.6072C411.168 60.0867 410.264 60.4071 409.254 60.5683C408.245 60.7265 407.259 60.7358 406.294 60.596C405.248 60.4446 404.411 60.1544 403.782 59.7253C403.153 59.2963 402.794 58.783 402.706 58.1855C402.618 57.5881 402.762 56.9903 403.137 56.3923ZM404.644 56.6257C404.128 57.4468 404.081 58.1463 404.501 58.7242C404.928 59.2998 405.684 59.6662 406.77 59.8234C407.877 59.9836 408.936 59.8767 409.947 59.5027C410.964 59.1294 411.747 58.5043 412.297 57.6275C412.645 57.0728 412.794 56.5672 412.745 56.1105C412.702 55.6514 412.456 55.266 412.007 54.9542C411.565 54.6401 410.978 54.43 410.245 54.3239C409.205 54.1732 408.17 54.2634 407.141 54.5944C406.12 54.923 405.287 55.6001 404.644 56.6257Z" fill="black"/>
<path d="M425.144 55.7664L426.614 55.9792L424.145 59.9158C423.715 60.6005 423.248 61.126 422.742 61.4922C422.237 61.8585 421.574 62.1207 420.753 62.2789C419.939 62.4348 418.996 62.4352 417.925 62.2802C416.885 62.1295 416.102 61.8963 415.579 61.5805C415.055 61.2646 414.782 60.8787 414.759 60.4225C414.739 59.9633 414.955 59.3727 415.408 58.6507L417.877 54.7142L419.347 54.927L416.881 58.8589C416.51 59.4507 416.324 59.9004 416.324 60.208C416.331 60.5132 416.504 60.7731 416.843 60.9879C417.187 61.2033 417.675 61.3568 418.307 61.4482C419.388 61.6047 420.252 61.566 420.9 61.332C421.549 61.098 422.141 60.5534 422.677 59.6983L425.144 55.7664Z" fill="black"/>
<path d="M424.818 63.1514L429.092 56.338L434.017 57.0511C435.007 57.1945 435.721 57.3654 436.159 57.564C436.598 57.7594 436.875 58.0344 436.988 58.3888C437.102 58.7433 437.041 59.108 436.806 59.4829C436.503 59.9663 435.992 60.3368 435.274 60.5944C434.556 60.8521 433.636 60.9487 432.513 60.8842C432.831 61.0552 433.055 61.211 433.187 61.3518C433.465 61.6557 433.682 62.0167 433.839 62.4348L434.607 64.569L432.759 64.3013L432.178 62.6709C432.005 62.1997 431.848 61.8356 431.706 61.5784C431.564 61.3213 431.409 61.1333 431.242 61.0144C431.079 60.8961 430.894 60.8035 430.688 60.7365C430.535 60.6907 430.269 60.6404 429.891 60.5855L428.186 60.3387L426.288 63.3643L424.818 63.1514ZM428.675 59.5579L431.835 60.0154C432.507 60.1127 433.059 60.1469 433.49 60.1181C433.923 60.0862 434.297 59.9916 434.61 59.8342C434.926 59.6737 435.153 59.4835 435.291 59.2635C435.493 58.9412 435.467 58.6485 435.213 58.3853C434.965 58.1229 434.429 57.9321 433.605 57.8128L430.09 57.3037L428.675 59.5579Z" fill="black"/>
<path d="M299.545 56.6935L308.086 50.4977L309.669 50.7271L309.941 58.1988L308.267 57.9563L308.266 55.7052L303.621 55.0326L301.106 56.9195L299.545 56.6935ZM304.506 54.3597L308.272 54.905L308.296 52.8502C308.302 52.2258 308.335 51.7168 308.394 51.3232C307.979 51.7396 307.507 52.1445 306.979 52.5379L304.506 54.3597Z" fill="black"/>
<path d="M320.54 57.1276L321.868 57.5682C321.095 58.2641 320.184 58.7491 319.136 59.0232C318.095 59.2949 316.996 59.347 315.84 59.1795C314.642 59.0062 313.761 58.7163 313.195 58.3099C312.635 57.9011 312.337 57.3846 312.298 56.7606C312.265 56.1372 312.453 55.5002 312.861 54.8496C313.306 54.14 313.913 53.5537 314.683 53.0906C315.46 52.6251 316.341 52.315 317.325 52.1601C318.317 52.0028 319.302 51.9951 320.282 52.137C321.394 52.2979 322.219 52.6068 322.759 53.0635C323.299 53.5202 323.521 54.0847 323.425 54.7568L321.846 54.7564C321.899 54.2233 321.752 53.8082 321.404 53.5111C321.056 53.214 320.511 53.0116 319.768 52.9041C318.914 52.7805 318.121 52.8025 317.387 52.9701C316.659 53.1384 316.046 53.418 315.547 53.8088C315.05 54.1966 314.661 54.6151 314.379 55.0643C314.016 55.6438 313.834 56.1701 313.835 56.6434C313.843 57.1143 314.07 57.4987 314.517 57.7966C314.963 58.0945 315.525 58.2925 316.202 58.3905C317.026 58.5097 317.814 58.465 318.568 58.2564C319.321 58.0478 319.979 57.6715 320.54 57.1276Z" fill="black"/>
<path d="M325.157 60.4019L328.927 54.3925L325.267 53.8626L325.771 53.0585L334.576 54.3334L334.072 55.1374L330.397 54.6053L326.627 60.6147L325.157 60.4019Z" fill="black"/>
<path d="M332.067 61.4025L336.342 54.589L337.812 54.8019L333.537 61.6153L332.067 61.4025Z" fill="black"/>
<path d="M339.311 62.4514L339.282 55.0147L340.873 55.2451L340.655 60.6129C340.638 61.0432 340.599 61.4431 340.538 61.8128C340.943 61.4659 341.376 61.123 341.837 60.7841L347.942 56.2688L349.443 56.486L340.819 62.6697L339.311 62.4514Z" fill="black"/>
<path d="M346.737 63.5266L351.011 56.7131L352.481 56.926L348.207 63.7394L346.737 63.5266Z" fill="black"/>
<path d="M353.632 64.525L357.402 58.5156L353.742 57.9857L354.247 57.1816L363.052 58.4565L362.547 59.2606L358.872 58.7284L355.102 64.7379L353.632 64.525Z" fill="black"/>
<path d="M360.543 65.5256L364.817 58.7122L366.287 58.925L362.013 65.7385L360.543 65.5256Z" fill="black"/>
<path d="M364.642 66.1192L368.916 59.3057L376.948 60.4687L376.444 61.2727L369.882 60.3226L368.573 62.4094L374.718 63.2992L374.217 64.0986L368.071 63.2088L366.616 65.528L373.436 66.5154L372.932 67.3195L364.642 66.1192Z" fill="black"/>
<path d="M375.836 65.352L377.269 65.4785C377.121 65.8288 377.096 66.1311 377.196 66.3855C377.302 66.6375 377.565 66.8683 377.985 67.0777C378.406 67.2841 378.933 67.433 379.564 67.5244C380.125 67.6056 380.652 67.6262 381.146 67.5861C381.639 67.546 382.045 67.4527 382.363 67.3061C382.688 67.1571 382.916 66.9772 383.048 66.7665C383.183 66.5527 383.198 66.3522 383.095 66.1649C382.994 65.9746 382.745 65.7915 382.349 65.6158C382.095 65.5013 381.505 65.2959 380.578 64.9994C379.653 64.6998 379.027 64.4538 378.702 64.2613C378.278 64.0141 378.014 63.746 377.909 63.457C377.811 63.1656 377.86 62.8635 378.056 62.5505C378.272 62.2066 378.632 61.909 379.137 61.6576C379.644 61.4031 380.251 61.2427 380.96 61.1763C381.668 61.1098 382.396 61.1308 383.144 61.239C383.967 61.3582 384.64 61.5453 385.164 61.8002C385.694 62.0528 386.029 62.3616 386.17 62.7266C386.31 63.0917 386.267 63.4759 386.042 63.8792L384.592 63.7402C384.786 63.2986 384.732 62.9359 384.431 62.6523C384.135 62.3694 383.559 62.1662 382.706 62.0425C381.817 61.9138 381.104 61.9205 380.569 62.0627C380.04 62.2025 379.688 62.4133 379.511 62.6953C379.357 62.9401 379.375 63.1623 379.564 63.362C379.747 63.561 380.383 63.8305 381.47 64.1704C382.564 64.508 383.295 64.7709 383.662 64.9592C384.193 65.2356 384.525 65.5371 384.656 65.8637C384.79 66.1872 384.741 66.5317 384.512 66.8973C384.285 67.2599 383.901 67.5777 383.36 67.851C382.821 68.1211 382.177 68.2999 381.428 68.3875C380.686 68.4727 379.918 68.4578 379.125 68.343C378.12 68.1974 377.333 67.9854 376.764 67.707C376.199 67.4293 375.836 67.0825 375.672 66.6668C375.516 66.2487 375.57 65.8104 375.836 65.352Z" fill="black"/>
<path d="M390.505 67.4761L391.939 67.6026C391.79 67.9529 391.766 68.2552 391.865 68.5096C391.972 68.7616 392.235 68.9923 392.654 69.2018C393.076 69.4082 393.603 69.5571 394.234 69.6485C394.795 69.7297 395.322 69.7503 395.815 69.7102C396.309 69.6701 396.715 69.5768 397.033 69.4302C397.357 69.2812 397.586 69.1013 397.718 68.8906C397.852 68.6768 397.868 68.4763 397.765 68.289C397.664 68.0987 397.415 67.9156 397.018 67.7399C396.765 67.6254 396.175 67.42 395.248 67.1235C394.323 66.8239 393.697 66.5779 393.372 66.3854C392.948 66.1382 392.684 65.8701 392.578 65.5811C392.48 65.2897 392.529 64.9876 392.726 64.6746C392.941 64.3307 393.302 64.0331 393.806 63.7817C394.313 63.5272 394.921 63.3668 395.629 63.3004C396.338 63.2339 397.066 63.2549 397.813 63.3631C398.637 63.4823 399.31 63.6694 399.834 63.9243C400.364 64.1769 400.699 64.4857 400.839 64.8507C400.98 65.2158 400.937 65.6 400.711 66.0033L399.261 65.8643C399.456 65.4227 399.402 65.06 399.101 64.7764C398.804 64.4935 398.229 64.2903 397.375 64.1666C396.486 64.0379 395.774 64.0446 395.239 64.1868C394.71 64.3266 394.357 64.5374 394.18 64.8194C394.027 65.0642 394.044 65.2864 394.233 65.4861C394.417 65.6851 395.053 65.9545 396.14 66.2945C397.234 66.6321 397.964 66.895 398.331 67.0833C398.863 67.3597 399.195 67.6612 399.326 67.9878C399.459 68.3113 399.411 68.6558 399.182 69.0214C398.954 69.384 398.57 69.7018 398.03 69.9751C397.491 70.2452 396.847 70.424 396.098 70.5116C395.356 70.5968 394.588 70.5819 393.795 70.4671C392.79 70.3215 392.002 70.1095 391.433 69.8311C390.869 69.5534 390.505 69.2066 390.342 68.7909C390.185 68.3728 390.24 67.9345 390.505 67.4761Z" fill="black"/>
<path d="M401.617 67.8532C402.327 66.7222 403.377 65.9093 404.767 65.4144C406.16 64.9164 407.639 64.7807 409.205 65.0075C410.23 65.156 411.061 65.4401 411.695 65.8599C412.33 66.2796 412.693 66.7902 412.785 67.3915C412.883 67.9904 412.718 68.6307 412.29 69.3124C411.857 70.0033 411.242 70.5885 410.445 71.068C409.648 71.5475 408.745 71.8679 407.734 72.0292C406.726 72.1873 405.739 72.1966 404.774 72.0569C403.729 71.9055 402.891 71.6152 402.262 71.1862C401.633 70.7571 401.275 70.2438 401.187 69.6464C401.099 69.0489 401.242 68.4512 401.617 67.8532ZM403.124 68.0865C402.609 68.9076 402.561 69.6071 402.981 70.185C403.408 70.7606 404.165 71.127 405.251 71.2843C406.357 71.4445 407.416 71.3375 408.428 70.9635C409.444 70.5902 410.228 69.9651 410.778 69.0883C411.126 68.5337 411.275 68.028 411.225 67.5713C411.183 67.1122 410.937 66.7268 410.488 66.415C410.045 66.1009 409.458 65.8908 408.726 65.7847C407.685 65.6341 406.65 65.7242 405.622 66.0552C404.6 66.3838 403.767 67.061 403.124 68.0865Z" fill="black"/>
<path d="M416.456 73.6215L420.73 66.8081L428.224 67.8932L427.72 68.6972L421.696 67.825L420.372 69.935L425.585 70.6898L425.081 71.4939L419.868 70.739L417.926 73.8344L416.456 73.6215Z" fill="black"/>
<path d="M423.783 74.6825L432.323 68.4867L433.907 68.716L434.179 76.1878L432.505 75.9453L432.503 73.6941L427.858 73.0216L425.344 74.9085L423.783 74.6825ZM428.743 72.3487L432.509 72.894L432.534 70.8392C432.54 70.2148 432.572 69.7058 432.632 69.3122C432.217 69.7286 431.745 70.1335 431.217 70.5268L428.743 72.3487Z" fill="black"/>
<path d="M435.376 76.3611L439.651 69.5477L444.576 70.2608C445.566 70.4042 446.28 70.5751 446.717 70.7737C447.157 70.9691 447.433 71.2441 447.547 71.5985C447.661 71.953 447.6 72.3177 447.365 72.6926C447.062 73.176 446.551 73.5465 445.833 73.8041C445.115 74.0618 444.194 74.1584 443.072 74.0939C443.389 74.2649 443.614 74.4207 443.746 74.5615C444.024 74.8654 444.241 75.2264 444.397 75.6445L445.166 77.7787L443.317 77.511L442.737 75.8806C442.564 75.4094 442.406 75.0453 442.265 74.7881C442.123 74.531 441.968 74.343 441.8 74.2241C441.637 74.1058 441.453 74.0132 441.247 73.9462C441.094 73.9004 440.828 73.8501 440.449 73.7952L438.744 73.5484L436.846 76.574L435.376 76.3611ZM439.234 72.7676L442.394 73.2251C443.066 73.3224 443.617 73.3566 444.049 73.3278C444.482 73.2959 444.855 73.2013 445.169 73.0439C445.485 72.8834 445.711 72.6932 445.849 72.4732C446.052 72.1509 446.026 71.8582 445.772 71.595C445.524 71.3326 444.988 71.1417 444.164 71.0225L440.648 70.5134L439.234 72.7676Z" fill="black"/>
<path d="M450 76.6483C450.065 76.5361 450.115 76.452 450.15 76.3963C450.356 76.0678 450.609 75.7953 450.911 75.5787C451.134 75.415 451.427 75.2598 451.79 75.1128C452.055 75.0059 452.502 74.8594 453.132 74.6734C453.768 74.4849 454.204 74.3251 454.441 74.1937C454.678 74.0624 454.852 73.9069 454.965 73.7271C455.169 73.4018 455.141 73.0868 454.88 72.782C454.621 72.4742 454.191 72.2767 453.59 72.1897C453.009 72.1056 452.454 72.1469 451.926 72.3137C451.397 72.4804 450.923 72.7921 450.504 73.2486L449.167 72.9433C449.691 72.3264 450.37 71.8941 451.204 71.6464C452.042 71.3993 452.974 71.35 453.999 71.4985C455.085 71.6558 455.838 71.9625 456.257 72.4186C456.676 72.8748 456.724 73.36 456.402 73.8744C456.215 74.1718 455.93 74.4296 455.545 74.6476C455.16 74.8657 454.524 75.1065 453.637 75.3701C453.041 75.5474 452.638 75.6835 452.43 75.7784C452.222 75.8733 452.038 75.9904 451.879 76.1296C451.72 76.2688 451.531 76.505 451.311 76.8381L450 76.6483ZM448.864 78.3141L449.462 77.3613L451.015 77.5862L450.417 78.539L448.864 78.3141Z" fill="black"/>
<path d="M182.723 79.3632C185.815 74.4349 194.835 71.3828 202.87 72.5462L267.853 81.9555C275.888 83.1189 279.895 88.0572 276.803 92.9855C273.712 97.9138 264.692 100.966 256.657 99.8024L191.674 90.3932C183.639 89.2298 179.632 84.2915 182.723 79.3632Z" fill="#8FED30"/>
<path fill-rule="evenodd" clip-rule="evenodd" d="M203.616 71.3567L268.599 80.7659C277.705 82.0844 282.247 87.6812 278.743 93.2666C275.239 98.852 265.016 102.311 255.91 100.992L190.927 91.5832C181.821 90.2647 177.279 84.6679 180.783 79.0825C184.287 73.4971 194.51 70.0381 203.616 71.3567ZM202.87 72.5464C194.835 71.383 185.815 74.4351 182.723 79.3634C179.631 84.2917 183.639 89.23 191.674 90.3934L256.657 99.8026C264.692 100.966 273.711 97.914 276.803 92.9857C279.895 88.0574 275.887 83.1191 267.853 81.9557L202.87 72.5464Z" fill="#2686A5"/>
<path d="M159.958 115.652C163.05 110.724 172.07 107.672 180.105 108.835L245.088 118.245C253.122 119.408 257.13 124.346 254.038 129.275C250.946 134.203 241.927 137.255 233.892 136.091L168.909 126.682C160.874 125.519 156.867 120.581 159.958 115.652Z" fill="#F2F2F2"/>
<path fill-rule="evenodd" clip-rule="evenodd" d="M180.851 107.645L245.834 117.055C254.94 118.373 259.482 123.97 255.978 129.555C252.474 135.141 242.252 138.6 233.145 137.281L168.162 127.872C159.056 126.554 154.515 120.957 158.018 115.371C161.522 109.786 171.745 106.327 180.851 107.645ZM180.105 108.835C172.07 107.672 163.05 110.724 159.958 115.652C156.867 120.581 160.874 125.519 168.909 126.682L233.892 136.091C241.927 137.255 250.946 134.203 254.038 129.275C257.13 124.346 253.123 119.408 245.088 118.244L180.105 108.835Z" fill="#2686A5"/>
<path d="M287.015 134.049C290.106 129.121 299.126 126.069 307.161 127.233L372.144 136.642C380.179 137.805 384.186 142.743 381.094 147.672C378.003 152.6 368.983 155.652 360.948 154.489L295.965 145.079C287.93 143.916 283.923 138.978 287.015 134.049Z" fill="#F2F2F2"/>
<path fill-rule="evenodd" clip-rule="evenodd" d="M371.398 137.832L306.415 128.422C299.451 127.414 291.634 130.059 288.954 134.33C286.275 138.602 289.748 142.881 296.711 143.89L361.694 153.299C368.658 154.307 376.475 151.662 379.155 147.391C381.834 143.12 378.361 138.84 371.398 137.832ZM307.161 127.233C299.126 126.069 290.106 129.121 287.015 134.049C283.923 138.978 287.93 143.916 295.965 145.079L360.948 154.489C368.983 155.652 378.003 152.6 381.094 147.672C384.186 142.743 380.179 137.805 372.144 136.642L307.161 127.233Z" fill="#2686A5"/>
<path d="M414.071 152.446C417.163 147.518 426.183 144.466 434.217 145.629L499.2 155.039C507.235 156.202 511.243 161.14 508.151 166.069C505.059 170.997 496.039 174.049 488.004 172.886L423.021 163.476C414.987 162.313 410.979 157.375 414.071 152.446Z" fill="#8FED30"/>
<path fill-rule="evenodd" clip-rule="evenodd" d="M498.454 156.229L433.471 146.819C426.507 145.811 418.69 148.456 416.011 152.727C413.331 156.999 416.804 161.278 423.768 162.287L488.751 171.696C495.714 172.704 503.532 170.059 506.211 165.788C508.891 161.517 505.418 157.237 498.454 156.229ZM434.217 145.629C426.183 144.466 417.163 147.518 414.071 152.446C410.979 157.375 414.987 162.313 423.021 163.476L488.004 172.886C496.039 174.049 505.059 170.997 508.151 166.069C511.243 161.14 507.235 156.202 499.2 155.039L434.217 145.629Z" fill="#2686A5"/>
<path d="M137.193 151.941C140.285 147.013 149.305 143.961 157.339 145.124L222.322 154.533C230.357 155.697 234.365 160.635 231.273 165.563C228.181 170.492 219.161 173.544 211.127 172.38L146.144 162.971C138.109 161.808 134.101 156.869 137.193 151.941Z" fill="#8FED30"/>
<path fill-rule="evenodd" clip-rule="evenodd" d="M158.086 143.934L223.069 153.344C232.175 154.662 236.717 160.259 233.213 165.844C229.709 171.43 219.486 174.889 210.38 173.57L145.397 164.161C136.291 162.842 131.749 157.246 135.253 151.66C138.757 146.075 148.98 142.616 158.086 143.934ZM157.339 145.124C149.305 143.961 140.285 147.013 137.193 151.941C134.101 156.869 138.109 161.808 146.144 162.971L211.127 172.38C219.161 173.544 228.181 170.492 231.273 165.563C234.365 160.635 230.357 155.697 222.323 154.533L157.339 145.124Z" fill="#2686A5"/>
<path d="M114.428 188.23C117.52 183.302 126.54 180.25 134.575 181.413L199.558 190.822C207.592 191.986 211.6 196.924 208.508 201.852C205.416 206.78 196.397 209.833 188.362 208.669L123.379 199.26C115.344 198.096 111.336 193.158 114.428 188.23Z" fill="#8FED30"/>
<path fill-rule="evenodd" clip-rule="evenodd" d="M135.321 180.223L200.304 189.632C209.41 190.951 213.952 196.548 210.448 202.133C206.944 207.718 196.722 211.177 187.615 209.859L122.632 200.45C113.526 199.131 108.985 193.534 112.488 187.949C115.992 182.364 126.215 178.905 135.321 180.223ZM134.575 181.413C126.54 180.249 117.52 183.302 114.428 188.23C111.337 193.158 115.344 198.096 123.379 199.26L188.362 208.669C196.397 209.832 205.416 206.78 208.508 201.852C211.6 196.924 207.593 191.986 199.558 190.822L134.575 181.413Z" fill="#2686A5"/>
<path d="M241.485 206.627C244.576 201.699 253.596 198.646 261.631 199.81L326.614 209.219C334.649 210.383 338.656 215.321 335.564 220.249C332.473 225.177 323.453 228.23 315.418 227.066L250.435 217.657C242.4 216.493 238.393 211.555 241.485 206.627Z" fill="#F2F2F2"/>
<path fill-rule="evenodd" clip-rule="evenodd" d="M325.868 210.409L260.885 201C253.921 199.991 246.104 202.637 243.424 206.908C240.745 211.179 244.218 215.459 251.181 216.467L316.164 225.876C323.128 226.885 330.945 224.239 333.625 219.968C336.304 215.697 332.831 211.417 325.868 210.409ZM261.631 199.81C253.596 198.646 244.576 201.699 241.485 206.627C238.393 211.555 242.4 216.493 250.435 217.657L315.418 227.066C323.453 228.23 332.473 225.177 335.564 220.249C338.656 215.321 334.649 210.383 326.614 209.219L261.631 199.81Z" fill="#2686A5"/>
<path d="M220.212 240.536C223.304 235.608 232.324 232.556 240.359 233.719L305.342 243.129C313.377 244.292 317.384 249.23 314.292 254.159C311.201 259.087 302.181 262.139 294.146 260.976L229.163 251.566C221.128 250.403 217.121 245.465 220.212 240.536Z" fill="#F2F2F2"/>
<path fill-rule="evenodd" clip-rule="evenodd" d="M304.595 244.318L239.612 234.909C232.649 233.901 224.832 236.546 222.152 240.817C219.473 245.088 222.946 249.368 229.909 250.377L294.892 259.786C301.856 260.794 309.673 258.149 312.352 253.878C315.032 249.607 311.559 245.327 304.595 244.318ZM240.359 233.719C232.324 232.556 223.304 235.608 220.212 240.536C217.121 245.465 221.128 250.403 229.163 251.566L294.146 260.976C302.181 262.139 311.201 259.087 314.292 254.159C317.384 249.23 313.377 244.292 305.342 243.129L240.359 233.719Z" fill="#2686A5"/>
<path d="M368.541 225.024C371.633 220.096 380.652 217.044 388.687 218.207L453.67 227.616C461.705 228.78 465.713 233.718 462.621 238.646C459.529 243.575 450.509 246.627 442.474 245.463L377.491 236.054C369.457 234.891 365.449 229.952 368.541 225.024Z" fill="#F2F2F2"/>
<path fill-rule="evenodd" clip-rule="evenodd" d="M452.924 228.806L387.941 219.397C380.977 218.389 373.16 221.034 370.481 225.305C367.801 229.576 371.274 233.856 378.238 234.864L443.221 244.274C450.184 245.282 458.002 242.637 460.681 238.365C463.361 234.094 459.888 229.814 452.924 228.806ZM388.687 218.207C380.652 217.044 371.633 220.096 368.541 225.024C365.449 229.952 369.457 234.891 377.491 236.054L442.474 245.463C450.509 246.627 459.529 243.575 462.621 238.646C465.713 233.718 461.705 228.78 453.67 227.616L388.687 218.207Z" fill="#2686A5"/>
<path d="M264.249 170.338C267.341 165.41 276.361 162.358 284.396 163.521L349.379 172.93C357.414 174.094 361.421 179.032 358.329 183.96C355.238 188.889 346.218 191.941 338.183 190.777L273.2 181.368C265.165 180.205 261.158 175.266 264.249 170.338Z" fill="#F2F2F2"/>
<path fill-rule="evenodd" clip-rule="evenodd" d="M348.632 174.12L283.649 164.711C276.686 163.703 268.869 166.348 266.189 170.619C263.51 174.89 266.983 179.17 273.946 180.178L338.929 189.587C345.893 190.596 353.71 187.951 356.39 183.679C359.069 179.408 355.596 175.128 348.632 174.12ZM284.396 163.521C276.361 162.358 267.341 165.41 264.249 170.338C261.158 175.266 265.165 180.205 273.2 181.368L338.183 190.777C346.218 191.941 355.238 188.889 358.329 183.96C361.421 179.032 357.414 174.094 349.379 172.93L284.396 163.521Z" fill="#2686A5"/>
<path d="M391.306 188.735C394.398 183.807 403.417 180.755 411.452 181.918L476.435 191.328C484.47 192.491 488.477 197.429 485.386 202.358C482.294 207.286 473.274 210.338 465.239 209.174L400.256 199.765C392.221 198.602 388.214 193.664 391.306 188.735Z" fill="#8FED30"/>
<path fill-rule="evenodd" clip-rule="evenodd" d="M475.689 192.517L410.706 183.108C403.742 182.1 395.925 184.745 393.246 189.016C390.566 193.287 394.039 197.567 401.003 198.575L465.986 207.985C472.949 208.993 480.767 206.348 483.446 202.077C486.125 197.805 482.652 193.526 475.689 192.517ZM411.452 181.918C403.417 180.755 394.398 183.807 391.306 188.735C388.214 193.664 392.221 198.602 400.256 199.765L465.239 209.174C473.274 210.338 482.294 207.286 485.386 202.358C488.477 197.429 484.47 192.491 476.435 191.328L411.452 181.918Z" fill="#2686A5"/>
<path d="M309.78 97.7604C312.871 92.8321 321.891 89.78 329.926 90.9435L394.909 100.353C402.944 101.516 406.951 106.454 403.86 111.383C400.768 116.311 391.748 119.363 383.713 118.2L318.73 108.79C310.695 107.627 306.688 102.689 309.78 97.7604Z" fill="#F2F2F2"/>
<path fill-rule="evenodd" clip-rule="evenodd" d="M394.163 101.542L329.18 92.1333C322.216 91.125 314.399 93.7701 311.72 98.0413C309.04 102.312 312.513 106.592 319.477 107.601L384.46 117.01C391.423 118.018 399.24 115.373 401.92 111.102C404.599 106.831 401.126 102.551 394.163 101.542ZM329.926 90.9435C321.891 89.78 312.871 92.8321 309.78 97.7604C306.688 102.689 310.695 107.627 318.73 108.79L383.713 118.2C391.748 119.363 400.768 116.311 403.86 111.383C406.951 106.454 402.944 101.516 394.909 100.353L329.926 90.9435Z" fill="#2686A5"/>
<path d="M436.836 116.158C439.928 111.229 448.948 108.177 456.983 109.341L521.966 118.75C530 119.913 534.008 124.852 530.916 129.78C527.824 134.708 518.805 137.76 510.77 136.597L445.787 127.188C437.752 126.024 433.744 121.086 436.836 116.158Z" fill="#F2F2F2"/>
<path fill-rule="evenodd" clip-rule="evenodd" d="M521.219 119.94L456.236 110.53C449.273 109.522 441.455 112.167 438.776 116.438C436.096 120.71 439.569 124.99 446.533 125.998L511.516 135.407C518.48 136.415 526.297 133.77 528.976 129.499C531.656 125.228 528.183 120.948 521.219 119.94ZM456.983 109.341C448.948 108.177 439.928 111.229 436.836 116.158C433.744 121.086 437.752 126.024 445.787 127.188L510.77 136.597C518.805 137.76 527.824 134.708 530.916 129.78C534.008 124.852 530 119.913 521.966 118.75L456.983 109.341Z" fill="#2686A5"/>
<path d="M218.71 84.7249L215.238 84.2222L213.832 86.4635L212.741 86.3055L215.924 81.2303L221.05 81.9725L220.705 82.5232L216.67 81.939L215.581 83.6749L219.053 84.1777L218.71 84.7249Z" fill="black"/>
<path d="M222.612 87.7348C222.598 87.6517 222.632 87.5121 222.713 87.3161C222.029 87.5567 221.348 87.6279 220.67 87.5297C220.064 87.4419 219.631 87.2652 219.372 86.9996C219.118 86.7322 219.093 86.4369 219.296 86.1139C219.542 85.7212 219.975 85.4519 220.596 85.306C221.222 85.1583 221.976 85.1484 222.859 85.2762L223.882 85.4243L224.067 85.128C224.209 84.9026 224.211 84.7078 224.075 84.5435C223.939 84.3769 223.658 84.2626 223.23 84.2006C222.855 84.1463 222.504 84.1589 222.177 84.2383C221.85 84.3177 221.635 84.44 221.532 84.605L220.475 84.4519C220.593 84.2637 220.814 84.098 221.14 83.955C221.47 83.8102 221.853 83.7136 222.289 83.6651C222.728 83.6172 223.171 83.6256 223.618 83.6903C224.326 83.7929 224.813 83.9825 225.078 84.2591C225.344 84.5333 225.365 84.8621 225.141 85.2454L224.052 86.9813C223.835 87.3276 223.734 87.6133 223.749 87.8387L223.714 87.8945L222.612 87.7348ZM221.176 86.9907C221.505 87.0384 221.851 87.0314 222.212 86.9696C222.573 86.9079 222.872 86.8029 223.11 86.6548L223.595 85.881L222.771 85.7616C221.483 85.5751 220.694 85.7131 220.404 86.1755C220.277 86.3777 220.288 86.5516 220.436 86.6973C220.584 86.843 220.831 86.9408 221.176 86.9907Z" fill="black"/>
<path d="M228.501 84.4734L228.267 84.8958C228.922 84.6358 229.632 84.5612 230.398 84.672C231.258 84.7965 231.716 85.0834 231.773 85.5328C232.092 85.3811 232.449 85.2731 232.844 85.2088C233.244 85.1449 233.667 85.1454 234.114 85.2101C235.463 85.4054 235.874 85.9428 235.347 86.8221L233.762 89.3493L232.711 89.1971L234.272 86.7082C234.441 86.4387 234.467 86.2231 234.349 86.0616C234.233 85.8977 233.938 85.7815 233.464 85.713C233.074 85.6565 232.705 85.6816 232.357 85.7884C232.01 85.8928 231.74 86.0629 231.547 86.2985L229.977 88.8013L228.92 88.6482L230.47 86.1768C230.814 85.6284 230.549 85.2908 229.674 85.1641C228.984 85.0643 228.4 85.1761 227.92 85.4995L226.192 88.2532L225.141 88.101L227.507 84.3294L228.501 84.4734Z" fill="black"/>
<path d="M236.495 89.7451L235.444 89.5929L237.81 85.8213L238.861 85.9735L236.495 89.7451ZM238.352 84.8085C238.418 84.704 238.525 84.6231 238.672 84.5658C238.823 84.5092 239.001 84.4956 239.206 84.5253C239.41 84.5549 239.543 84.6134 239.604 84.7008C239.665 84.7882 239.663 84.8842 239.597 84.9888C239.531 85.0933 239.424 85.1728 239.274 85.2271C239.124 85.2815 238.947 85.2939 238.742 85.2642C238.538 85.2346 238.404 85.1773 238.342 85.0922C238.283 85.0077 238.287 84.9131 238.352 84.8085Z" fill="black"/>
<path d="M239.326 90.1549L238.274 90.0027L241.633 84.6486L242.684 84.8008L239.326 90.1549Z" fill="black"/>
<path d="M243.618 89.7459L246.823 87.1264L247.949 87.2893L242.745 91.285C241.969 91.8571 241.164 92.0827 240.331 91.962L240.138 91.9228L239.775 91.8207L240.103 91.2978L240.378 91.3529C240.734 91.4045 241.038 91.4004 241.291 91.3406C241.547 91.2814 241.813 91.1437 242.089 90.9277L242.563 90.578L242.709 86.5306L243.857 86.6968L243.618 89.7459Z" fill="black"/>
<path d="M343.63 102.813L340.157 102.31L338.751 104.551L337.66 104.393L340.844 99.3179L345.97 100.06L345.625 100.611L341.59 100.027L340.501 101.763L343.973 102.265L343.63 102.813Z" fill="black"/>
<path d="M348.756 102.517C348.607 102.477 348.44 102.444 348.254 102.418C347.565 102.318 346.984 102.43 346.512 102.755L344.832 105.432L343.781 105.279L346.147 101.508L347.17 101.656L346.914 102.094C347.47 101.807 348.064 101.709 348.697 101.801C348.901 101.831 349.047 101.869 349.132 101.917L348.756 102.517Z" fill="black"/>
<path d="M348.867 106.016L347.816 105.864L350.182 102.092L351.233 102.244L348.867 106.016ZM350.724 101.079C350.79 100.975 350.896 100.894 351.044 100.837C351.195 100.78 351.373 100.766 351.578 100.796C351.782 100.826 351.915 100.884 351.976 100.972C352.037 101.059 352.034 101.155 351.969 101.26C351.903 101.364 351.795 101.444 351.646 101.498C351.496 101.552 351.319 101.565 351.114 101.535C350.909 101.505 350.776 101.448 350.714 101.363C350.655 101.278 350.659 101.184 350.724 101.079Z" fill="black"/>
<path d="M353.063 106.699C352.229 106.579 351.656 106.313 351.343 105.903C351.032 105.49 351.052 105.003 351.405 104.44L351.48 104.322C351.714 103.948 352.039 103.631 352.454 103.372C352.874 103.111 353.344 102.928 353.864 102.823C354.39 102.717 354.897 102.699 355.386 102.769C356.185 102.885 356.705 103.137 356.946 103.524C357.186 103.911 357.118 104.406 356.74 105.008L356.572 105.276L352.406 104.673C352.188 105.047 352.176 105.373 352.368 105.652C352.567 105.929 352.927 106.106 353.45 106.181C353.821 106.235 354.165 106.234 354.481 106.178C354.797 106.123 355.099 106.032 355.389 105.907L355.839 106.307C355.019 106.718 354.093 106.849 353.063 106.699ZM355.053 103.299C354.629 103.238 354.213 103.282 353.806 103.43C353.4 103.577 353.055 103.816 352.773 104.148L355.853 104.594L355.884 104.545C356.059 104.213 356.074 103.939 355.928 103.723C355.784 103.504 355.493 103.363 355.053 103.299Z" fill="black"/>
<path d="M360.087 103.526L359.824 104.005C360.521 103.711 361.249 103.618 362.006 103.728C363.306 103.916 363.679 104.461 363.126 105.362L361.563 107.854L360.512 107.702L362.077 105.206C362.244 104.934 362.268 104.718 362.149 104.559C362.033 104.4 361.765 104.29 361.345 104.229C361.004 104.18 360.67 104.192 360.342 104.267C360.014 104.341 359.722 104.458 359.464 104.619L357.778 107.306L356.727 107.154L359.093 103.382L360.087 103.526Z" fill="black"/>
<path d="M364.095 106.13C364.458 105.551 364.973 105.118 365.641 104.832C366.309 104.544 367.005 104.452 367.729 104.557C368.449 104.661 368.924 104.895 369.155 105.258L370.389 103.292L371.44 103.444L368.081 108.798L367.115 108.658L367.318 108.246C366.699 108.501 366.014 108.575 365.264 108.466C364.552 108.363 364.083 108.1 363.856 107.677C363.634 107.254 363.703 106.755 364.065 106.178L364.095 106.13ZM365.101 106.355C364.833 106.783 364.767 107.138 364.903 107.421C365.039 107.705 365.361 107.883 365.869 107.957C366.536 108.053 367.138 107.94 367.675 107.617L368.762 105.885C368.67 105.484 368.299 105.236 367.647 105.142C367.132 105.067 366.654 105.131 366.213 105.333C365.772 105.536 365.401 105.876 365.101 106.355Z" fill="black"/>
<path d="M373.926 108.553C374.035 108.379 374.012 108.228 373.856 108.102C373.705 107.973 373.384 107.836 372.893 107.689C372.407 107.542 372.037 107.397 371.784 107.254C371.534 107.112 371.376 106.962 371.309 106.805C371.246 106.649 371.272 106.478 371.389 106.292C371.583 105.983 371.959 105.752 372.518 105.6C373.08 105.448 373.692 105.42 374.355 105.516C375.053 105.617 375.548 105.809 375.841 106.093C376.138 106.376 376.179 106.69 375.963 107.034L374.906 106.881C375.017 106.705 374.99 106.535 374.823 106.371C374.661 106.208 374.394 106.1 374.023 106.046C373.64 105.991 373.309 105.998 373.029 106.069C372.749 106.14 372.557 106.258 372.454 106.423C372.356 106.579 372.383 106.711 372.534 106.819C372.685 106.927 373 107.055 373.477 107.203C373.959 107.351 374.331 107.499 374.594 107.646C374.857 107.793 375.022 107.949 375.088 108.113C375.16 108.275 375.132 108.458 375.006 108.66C374.794 108.997 374.405 109.236 373.837 109.377C373.271 109.515 372.637 109.534 371.936 109.432C371.444 109.361 371.041 109.244 370.73 109.083C370.418 108.921 370.214 108.729 370.117 108.507C370.026 108.284 370.05 108.06 370.19 107.837L371.242 107.989C371.125 108.208 371.157 108.401 371.339 108.566C371.525 108.73 371.834 108.843 372.266 108.906C372.664 108.963 373.013 108.961 373.313 108.898C373.618 108.833 373.822 108.718 373.926 108.553Z" fill="black"/>
<path d="M323.817 140.383L321.874 140.102L320.586 142.155L319.489 141.996L322.673 136.921L325.412 137.318C326.344 137.453 326.978 137.686 327.315 138.019C327.656 138.352 327.67 138.768 327.358 139.265C327.16 139.581 326.847 139.836 326.419 140.03C325.996 140.225 325.499 140.344 324.93 140.389L325.522 142.824L325.496 142.866L324.325 142.696L323.817 140.383ZM322.217 139.555L323.893 139.797C324.435 139.876 324.919 139.852 325.345 139.726C325.775 139.601 326.081 139.394 326.261 139.106C326.458 138.792 326.456 138.53 326.254 138.318C326.056 138.107 325.669 137.958 325.095 137.872L323.424 137.631L322.217 139.555Z" fill="black"/>
<path d="M329.01 143.451C328.176 143.33 327.603 143.065 327.29 142.654C326.979 142.242 326.999 141.754 327.352 141.192L327.426 141.073C327.661 140.699 327.986 140.382 328.401 140.123C328.821 139.862 329.291 139.679 329.811 139.574C330.337 139.468 330.844 139.45 331.332 139.521C332.132 139.637 332.652 139.888 332.892 140.275C333.133 140.662 333.065 141.157 332.687 141.759L332.519 142.027L328.353 141.424C328.135 141.798 328.122 142.125 328.315 142.403C328.513 142.681 328.874 142.857 329.397 142.933C329.768 142.986 330.112 142.985 330.427 142.93C330.743 142.874 331.046 142.784 331.336 142.658L331.785 143.058C330.965 143.469 330.04 143.6 329.01 143.451ZM331 140.051C330.576 139.989 330.16 140.033 329.752 140.182C329.346 140.328 329.002 140.567 328.72 140.899L331.8 141.345L331.83 141.296C332.006 140.964 332.02 140.69 331.875 140.474C331.731 140.255 331.439 140.114 331 140.051Z" fill="black"/>
<path d="M333.816 144.071L332.764 143.918L336.123 138.564L337.174 138.717L333.816 144.071Z" fill="black"/>
<path d="M339.3 144.865C339.286 144.782 339.32 144.642 339.401 144.446C338.717 144.687 338.036 144.758 337.358 144.66C336.752 144.572 336.319 144.395 336.06 144.129C335.806 143.862 335.781 143.567 335.983 143.244C336.23 142.851 336.663 142.582 337.284 142.436C337.909 142.288 338.664 142.278 339.546 142.406L340.569 142.554L340.755 142.258C340.897 142.032 340.899 141.838 340.762 141.673C340.627 141.507 340.346 141.392 339.917 141.33C339.542 141.276 339.192 141.289 338.865 141.368C338.538 141.448 338.323 141.57 338.219 141.735L337.162 141.582C337.28 141.394 337.502 141.228 337.827 141.085C338.158 140.94 338.541 140.843 338.976 140.795C339.416 140.747 339.859 140.755 340.306 140.82C341.014 140.923 341.501 141.112 341.765 141.389C342.031 141.663 342.052 141.992 341.829 142.375L340.74 144.111C340.522 144.457 340.422 144.743 340.437 144.969L340.402 145.024L339.3 144.865ZM337.863 144.121C338.193 144.168 338.538 144.161 338.9 144.1C339.261 144.038 339.56 143.933 339.798 143.785L340.283 143.011L339.459 142.892C338.171 142.705 337.382 142.843 337.092 143.305C336.965 143.508 336.975 143.681 337.124 143.827C337.272 143.973 337.519 144.071 337.863 144.121Z" fill="black"/>
<path d="M345.4 143.136L347.627 141.956L348.855 142.134L345.673 143.708L346.551 145.915L345.335 145.739L344.8 144.121L342.494 145.327L341.272 145.15L344.542 143.544L343.7 141.388L344.916 141.564L345.4 143.136Z" fill="black"/>
<path d="M294.176 175.677L292.232 175.395L290.944 177.448L289.848 177.289L293.031 172.214L295.771 172.611C296.703 172.746 297.337 172.98 297.674 173.312C298.014 173.645 298.029 174.061 297.717 174.558C297.519 174.874 297.206 175.129 296.778 175.323C296.354 175.518 295.858 175.637 295.288 175.682L295.881 178.117L295.854 178.159L294.684 177.99L294.176 175.677ZM292.576 174.848L294.252 175.091C294.794 175.169 295.278 175.145 295.704 175.019C296.134 174.894 296.439 174.687 296.62 174.399C296.817 174.085 296.814 173.823 296.612 173.611C296.414 173.4 296.028 173.251 295.453 173.166L293.783 172.924L292.576 174.848Z" fill="black"/>
<path d="M299.368 178.744C298.535 178.623 297.962 178.358 297.649 177.947C297.337 177.535 297.358 177.047 297.711 176.485L297.785 176.366C298.02 175.992 298.344 175.676 298.759 175.416C299.179 175.155 299.649 174.972 300.17 174.868C300.695 174.761 301.202 174.743 301.691 174.814C302.49 174.93 303.01 175.181 303.251 175.568C303.492 175.956 303.423 176.45 303.046 177.052L302.877 177.32L298.712 176.717C298.494 177.091 298.481 177.418 298.674 177.697C298.872 177.974 299.232 178.15 299.755 178.226C300.127 178.28 300.47 178.279 300.786 178.223C301.102 178.167 301.405 178.077 301.694 177.951L302.144 178.351C301.324 178.762 300.399 178.893 299.368 178.744ZM301.359 175.344C300.934 175.282 300.518 175.326 300.111 175.475C299.705 175.622 299.361 175.861 299.078 176.192L302.158 176.638L302.189 176.59C302.364 176.258 302.379 175.983 302.234 175.767C302.09 175.549 301.798 175.408 301.359 175.344Z" fill="black"/>
<path d="M306.828 179.748C306.814 179.665 306.848 179.525 306.93 179.329C306.246 179.57 305.565 179.641 304.886 179.543C304.28 179.455 303.848 179.279 303.589 179.013C303.335 178.745 303.309 178.45 303.512 178.127C303.758 177.734 304.192 177.465 304.812 177.319C305.438 177.172 306.192 177.162 307.075 177.289L308.098 177.438L308.284 177.141C308.425 176.916 308.428 176.721 308.291 176.557C308.156 176.39 307.874 176.276 307.446 176.214C307.071 176.16 306.72 176.172 306.393 176.252C306.067 176.331 305.851 176.453 305.748 176.618L304.691 176.465C304.809 176.277 305.031 176.111 305.356 175.968C305.686 175.824 306.069 175.727 306.505 175.678C306.944 175.63 307.387 175.639 307.834 175.704C308.543 175.806 309.029 175.996 309.294 176.272C309.56 176.547 309.581 176.875 309.357 177.259L308.268 178.995C308.051 179.341 307.95 179.627 307.966 179.852L307.931 179.908L306.828 179.748ZM305.392 179.004C305.722 179.052 306.067 179.045 306.428 178.983C306.789 178.921 307.088 178.816 307.326 178.668L307.811 177.894L306.987 177.775C305.699 177.588 304.91 177.726 304.62 178.189C304.493 178.391 304.504 178.565 304.652 178.711C304.801 178.856 305.047 178.954 305.392 179.004Z" fill="black"/>
<path d="M310.31 178.161C310.673 177.582 311.188 177.15 311.855 176.864C312.524 176.575 313.22 176.483 313.944 176.588C314.663 176.692 315.139 176.926 315.37 177.289L316.603 175.323L317.654 175.475L314.296 180.829L313.33 180.689L313.532 180.278C312.913 180.533 312.229 180.606 311.479 180.498C310.766 180.394 310.297 180.131 310.071 179.708C309.848 179.286 309.918 178.786 310.279 178.21L310.31 178.161ZM311.315 178.386C311.047 178.814 310.981 179.169 311.117 179.453C311.254 179.736 311.576 179.915 312.083 179.988C312.75 180.085 313.352 179.972 313.889 179.649L314.976 177.916C314.885 177.515 314.513 177.268 313.862 177.173C313.346 177.099 312.868 177.163 312.427 177.365C311.986 177.567 311.616 177.908 311.315 178.386Z" fill="black"/>
<path d="M317.075 181.232L316.023 181.08L318.389 177.308L319.441 177.46L317.075 181.232ZM318.932 176.295C318.997 176.191 319.104 176.11 319.251 176.053C319.403 175.996 319.581 175.982 319.785 176.012C319.99 176.042 320.122 176.1 320.183 176.187C320.244 176.275 320.242 176.371 320.176 176.475C320.111 176.58 320.003 176.659 319.853 176.714C319.703 176.768 319.526 176.781 319.322 176.751C319.117 176.721 318.983 176.664 318.921 176.579C318.863 176.494 318.866 176.4 318.932 176.295Z" fill="black"/>
<path d="M322.123 177.849L321.86 178.328C322.557 178.033 323.284 177.941 324.042 178.05C325.342 178.239 325.715 178.783 325.162 179.684L323.599 182.176L322.547 182.024L324.113 179.528C324.28 179.256 324.304 179.04 324.185 178.881C324.069 178.722 323.801 178.612 323.381 178.552C323.04 178.502 322.705 178.515 322.378 178.589C322.05 178.663 321.758 178.78 321.5 178.941L319.814 181.628L318.763 181.476L321.129 177.705L322.123 177.849Z" fill="black"/>
<path d="M326.137 180.453C326.506 179.865 327.02 179.43 327.681 179.148C328.343 178.863 329.039 178.774 329.771 178.88C330.521 178.988 331.004 179.236 331.221 179.622L331.534 179.211L332.495 179.35L330.185 183.031C329.879 183.519 329.401 183.87 328.751 184.082C328.105 184.295 327.384 184.344 326.588 184.229C326.145 184.165 325.748 184.044 325.396 183.866C325.045 183.689 324.821 183.483 324.724 183.248L325.512 182.94C325.749 183.347 326.193 183.598 326.845 183.692C327.356 183.766 327.809 183.735 328.204 183.6C328.603 183.465 328.903 183.237 329.104 182.917L329.308 182.592C328.701 182.829 328.033 182.895 327.306 182.789C326.586 182.685 326.114 182.423 325.89 182.002C325.67 181.583 325.752 181.066 326.137 180.453ZM327.148 180.679C326.881 181.104 326.813 181.459 326.945 181.744C327.077 182.027 327.399 182.206 327.911 182.28C328.574 182.376 329.176 182.262 329.719 181.937L330.799 180.215C330.703 179.808 330.333 179.558 329.689 179.465C329.177 179.391 328.701 179.455 328.26 179.657C327.819 179.86 327.448 180.2 327.148 180.679Z" fill="black"/>
<path d="M272.639 212.626C272.2 213.148 271.616 213.516 270.887 213.73C270.163 213.942 269.35 213.982 268.448 213.852C267.471 213.71 266.821 213.382 266.5 212.866C266.182 212.351 266.249 211.734 266.701 211.013L267.008 210.525C267.303 210.053 267.7 209.658 268.197 209.34C268.698 209.022 269.261 208.805 269.884 208.687C270.509 208.567 271.153 208.555 271.816 208.651C272.695 208.778 273.305 209.031 273.646 209.41C273.988 209.787 274.036 210.248 273.789 210.792L272.692 210.634C272.851 210.215 272.829 209.893 272.624 209.665C272.423 209.439 272.039 209.284 271.47 209.202C270.773 209.101 270.127 209.18 269.531 209.438C268.938 209.697 268.459 210.118 268.093 210.701L267.785 211.193C267.44 211.744 267.352 212.209 267.523 212.589C267.694 212.968 268.117 213.207 268.791 213.304C269.398 213.392 269.914 213.376 270.341 213.255C270.773 213.133 271.174 212.87 271.542 212.467L272.639 212.626Z" fill="black"/>
<path d="M274.101 214.594L273.05 214.442L276.408 209.088L277.46 209.24L274.101 214.594Z" fill="black"/>
<path d="M278.297 215.278C277.463 215.157 276.89 214.892 276.577 214.481C276.266 214.069 276.286 213.581 276.639 213.019L276.713 212.9C276.948 212.526 277.273 212.209 277.688 211.95C278.108 211.689 278.578 211.506 279.098 211.401C279.624 211.295 280.131 211.277 280.619 211.348C281.419 211.464 281.939 211.715 282.18 212.102C282.42 212.489 282.352 212.984 281.974 213.586L281.806 213.854L277.64 213.251C277.422 213.625 277.409 213.952 277.602 214.23C277.8 214.508 278.161 214.684 278.684 214.76C279.055 214.813 279.399 214.812 279.715 214.757C280.03 214.701 280.333 214.611 280.623 214.485L281.072 214.885C280.252 215.296 279.327 215.427 278.297 215.278ZM280.287 211.878C279.863 211.816 279.447 211.86 279.039 212.009C278.633 212.155 278.289 212.394 278.007 212.726L281.087 213.172L281.117 213.123C281.293 212.791 281.308 212.517 281.162 212.301C281.018 212.082 280.727 211.941 280.287 211.878Z" fill="black"/>
<path d="M285.757 216.282C285.743 216.199 285.777 216.059 285.858 215.863C285.174 216.104 284.493 216.175 283.815 216.077C283.209 215.989 282.776 215.812 282.517 215.547C282.263 215.279 282.238 214.984 282.44 214.661C282.687 214.268 283.12 213.999 283.741 213.853C284.366 213.705 285.121 213.695 286.003 213.823L287.026 213.971L287.212 213.675C287.354 213.45 287.356 213.255 287.219 213.091C287.084 212.924 286.803 212.81 286.374 212.748C285.999 212.693 285.648 212.706 285.322 212.785C284.995 212.865 284.78 212.987 284.676 213.152L283.619 212.999C283.737 212.811 283.959 212.645 284.284 212.502C284.615 212.357 284.998 212.261 285.433 212.212C285.873 212.164 286.316 212.173 286.763 212.237C287.471 212.34 287.958 212.53 288.222 212.806C288.488 213.08 288.509 213.409 288.285 213.792L287.196 215.528C286.979 215.875 286.878 216.16 286.894 216.386L286.859 216.442L285.757 216.282ZM284.32 215.538C284.65 215.586 284.995 215.578 285.356 215.517C285.718 215.455 286.017 215.35 286.254 215.202L286.74 214.428L285.916 214.309C284.628 214.122 283.839 214.26 283.549 214.723C283.422 214.925 283.432 215.099 283.581 215.244C283.729 215.39 283.976 215.488 284.32 215.538Z" fill="black"/>
<path d="M291.652 213.021L291.389 213.5C292.086 213.206 292.813 213.113 293.571 213.223C294.87 213.411 295.244 213.956 294.691 214.857L293.128 217.349L292.076 217.197L293.642 214.701C293.809 214.429 293.832 214.213 293.713 214.054C293.598 213.895 293.33 213.785 292.909 213.724C292.568 213.675 292.234 213.687 291.907 213.762C291.579 213.836 291.286 213.953 291.029 214.114L289.343 216.801L288.291 216.649L290.657 212.877L291.652 213.021Z" fill="black"/>
<path d="M295.855 217.744L294.804 217.592L297.17 213.82L298.221 213.973L295.855 217.744ZM297.712 212.808C297.778 212.703 297.884 212.622 298.032 212.565C298.183 212.508 298.361 212.495 298.566 212.524C298.77 212.554 298.903 212.612 298.964 212.7C299.025 212.787 299.023 212.883 298.957 212.988C298.891 213.092 298.784 213.172 298.634 213.226C298.484 213.281 298.307 213.293 298.102 213.263C297.898 213.234 297.764 213.176 297.702 213.091C297.643 213.007 297.647 212.912 297.712 212.808Z" fill="black"/>
<path d="M300.904 214.361L300.64 214.84C301.338 214.545 302.065 214.453 302.823 214.563C304.122 214.751 304.496 215.296 303.943 216.196L302.379 218.689L301.328 218.537L302.894 216.041C303.061 215.768 303.084 215.553 302.965 215.393C302.85 215.235 302.582 215.125 302.161 215.064C301.82 215.015 301.486 215.027 301.158 215.101C300.831 215.176 300.538 215.293 300.28 215.453L298.595 218.141L297.543 217.989L299.909 214.217L300.904 214.361Z" fill="black"/>
<path d="M304.918 216.965C305.286 216.377 305.801 215.942 306.462 215.66C307.124 215.376 307.82 215.286 308.551 215.392C309.301 215.501 309.785 215.748 310.001 216.135L310.315 215.724L311.275 215.863L308.966 219.544C308.66 220.032 308.182 220.382 307.532 220.595C306.886 220.808 306.165 220.857 305.369 220.741C304.926 220.677 304.529 220.556 304.177 220.379C303.826 220.201 303.602 219.995 303.505 219.761L304.293 219.453C304.53 219.859 304.974 220.11 305.625 220.204C306.137 220.278 306.59 220.248 306.985 220.112C307.384 219.977 307.684 219.75 307.885 219.429L308.088 219.105C307.481 219.341 306.814 219.407 306.086 219.302C305.367 219.197 304.895 218.935 304.671 218.515C304.45 218.095 304.533 217.578 304.918 216.965ZM305.929 217.191C305.662 217.617 305.594 217.972 305.725 218.257C305.858 218.54 306.18 218.718 306.691 218.792C307.354 218.888 307.957 218.774 308.499 218.449L309.58 216.727C309.484 216.321 309.113 216.071 308.469 215.977C307.958 215.903 307.482 215.967 307.041 216.17C306.6 216.372 306.229 216.713 305.929 217.191Z" fill="black"/>
<path d="M250.123 246.018L246.656 245.516L245.047 246.728L243.922 246.565L250.265 241.947L251.22 242.086L251.202 247.619L250.082 247.457L250.123 246.018ZM247.332 245.013L250.145 245.42L250.224 242.843L247.332 245.013Z" fill="black"/>
<path d="M253.098 245.802C253.461 245.224 253.976 244.791 254.643 244.505C255.312 244.217 256.008 244.125 256.731 244.23C257.451 244.334 257.927 244.567 258.158 244.93L259.391 242.964L260.442 243.117L257.084 248.471L256.117 248.331L256.32 247.919C255.701 248.174 255.017 248.248 254.267 248.139C253.554 248.036 253.085 247.773 252.859 247.35C252.636 246.927 252.706 246.427 253.067 245.851L253.098 245.802ZM254.103 246.028C253.835 246.455 253.769 246.811 253.905 247.094C254.042 247.378 254.364 247.556 254.871 247.63C255.538 247.726 256.14 247.613 256.677 247.29L257.764 245.558C257.673 245.157 257.301 244.909 256.649 244.815C256.134 244.74 255.656 244.804 255.215 245.006C254.774 245.209 254.403 245.549 254.103 246.028Z" fill="black"/>
<path d="M259.667 246.754C260.03 246.175 260.545 245.743 261.212 245.456C261.881 245.168 262.577 245.076 263.301 245.181C264.021 245.285 264.496 245.519 264.727 245.882L265.96 243.916L267.012 244.068L263.653 249.422L262.687 249.282L262.889 248.87C262.271 249.126 261.586 249.199 260.836 249.09C260.124 248.987 259.654 248.724 259.428 248.301C259.206 247.878 259.275 247.379 259.637 246.802L259.667 246.754ZM260.673 246.979C260.404 247.407 260.338 247.762 260.475 248.045C260.611 248.329 260.933 248.507 261.441 248.581C262.108 248.677 262.71 248.564 263.247 248.242L264.334 246.509C264.242 246.108 263.871 245.86 263.219 245.766C262.704 245.691 262.226 245.755 261.785 245.957C261.344 246.16 260.973 246.5 260.673 246.979Z" fill="black"/>
<path d="M271.537 246.449L271.274 246.928C271.971 246.634 272.699 246.542 273.456 246.651C274.756 246.839 275.129 247.384 274.576 248.285L273.013 250.777L271.962 250.625L273.527 248.129C273.694 247.857 273.718 247.641 273.599 247.482C273.483 247.323 273.215 247.213 272.795 247.152C272.454 247.103 272.12 247.116 271.792 247.19C271.464 247.264 271.172 247.381 270.914 247.542L269.228 250.229L268.177 250.077L270.543 246.305L271.537 246.449Z" fill="black"/>
<path d="M277.106 251.446C276.273 251.325 275.7 251.06 275.387 250.65C275.075 250.237 275.096 249.749 275.449 249.187L275.523 249.068C275.758 248.694 276.083 248.378 276.497 248.118C276.917 247.857 277.388 247.674 277.908 247.57C278.433 247.463 278.94 247.445 279.429 247.516C280.229 247.632 280.749 247.883 280.989 248.271C281.23 248.658 281.161 249.152 280.784 249.754L280.615 250.023L276.45 249.419C276.232 249.793 276.219 250.12 276.412 250.399C276.61 250.676 276.971 250.852 277.493 250.928C277.865 250.982 278.208 250.981 278.524 250.925C278.84 250.869 279.143 250.779 279.432 250.654L279.882 251.053C279.062 251.464 278.137 251.595 277.106 251.446ZM279.097 248.046C278.672 247.985 278.257 248.028 277.849 248.177C277.443 248.324 277.099 248.563 276.816 248.894L279.897 249.34L279.927 249.292C280.102 248.96 280.117 248.685 279.972 248.469C279.828 248.251 279.536 248.11 279.097 248.046Z" fill="black"/>
<path d="M286.772 251.8L289.763 249.088L290.814 249.241L286.658 252.753L285.805 252.63L286.104 249.555L282.856 252.202L282.003 252.079L282.585 248.049L283.631 248.201L283.07 251.199L286.273 248.583L287.12 248.706L286.772 251.8Z" fill="black"/>
<path d="M471.854 123.824L475.038 118.749L477.374 119.087C478.094 119.191 478.669 119.381 479.1 119.656C479.53 119.931 479.782 120.271 479.856 120.674C479.933 121.078 479.827 121.514 479.537 121.982L479.334 122.306C479.034 122.785 478.619 123.182 478.09 123.499C477.565 123.815 476.961 124.03 476.28 124.141C475.602 124.254 474.89 124.258 474.144 124.155L471.854 123.824ZM475.784 119.457L473.289 123.434L474.437 123.601C475.278 123.723 476.032 123.657 476.699 123.404C477.37 123.151 477.891 122.728 478.263 122.136L478.449 121.839C478.811 121.263 478.87 120.784 478.626 120.401C478.388 120.017 477.865 119.764 477.057 119.642L475.784 119.457Z" fill="black"/>
<path d="M483.124 125.456C483.11 125.372 483.143 125.233 483.225 125.037C482.541 125.277 481.86 125.349 481.182 125.25C480.576 125.163 480.143 124.986 479.884 124.72C479.63 124.453 479.605 124.158 479.807 123.835C480.054 123.442 480.487 123.173 481.108 123.027C481.733 122.879 482.488 122.869 483.37 122.997L484.393 123.145L484.579 122.849C484.721 122.623 484.723 122.428 484.586 122.264C484.451 122.098 484.169 121.983 483.741 121.921C483.366 121.867 483.015 121.88 482.689 121.959C482.362 122.038 482.147 122.161 482.043 122.326L480.986 122.173C481.104 121.984 481.326 121.819 481.651 121.676C481.982 121.531 482.365 121.434 482.8 121.386C483.239 121.338 483.683 121.346 484.13 121.411C484.838 121.514 485.325 121.703 485.589 121.98C485.855 122.254 485.876 122.583 485.652 122.966L484.563 124.702C484.346 125.048 484.245 125.334 484.261 125.559L484.226 125.615L483.124 125.456ZM481.687 124.711C482.017 124.759 482.362 124.752 482.723 124.69C483.084 124.629 483.384 124.524 483.621 124.375L484.107 123.602L483.283 123.482C481.995 123.296 481.206 123.434 480.915 123.896C480.789 124.098 480.799 124.272 480.948 124.418C481.096 124.564 481.342 124.661 481.687 124.711Z" fill="black"/>
<path d="M490.024 121.344L489.451 122.257L490.599 122.424L490.286 122.922L489.138 122.756L487.671 125.095C487.576 125.246 487.556 125.367 487.61 125.459C487.665 125.548 487.816 125.61 488.063 125.646C488.184 125.663 488.359 125.674 488.589 125.677L488.261 126.199C487.955 126.206 487.672 126.19 487.41 126.152C486.941 126.084 486.641 125.946 486.512 125.737C486.382 125.528 486.418 125.263 486.619 124.943L488.087 122.604L486.967 122.442L487.28 121.943L488.399 122.105L488.972 121.192L490.024 121.344Z" fill="black"/>
<path d="M491.974 126.813C491.14 126.692 490.567 126.427 490.254 126.016C489.943 125.604 489.963 125.116 490.316 124.554L490.39 124.435C490.625 124.061 490.95 123.745 491.365 123.485C491.785 123.224 492.255 123.041 492.775 122.937C493.301 122.83 493.808 122.812 494.297 122.883C495.096 122.999 495.616 123.25 495.857 123.638C496.097 124.025 496.029 124.519 495.651 125.121L495.483 125.39L491.317 124.786C491.099 125.16 491.086 125.487 491.279 125.766C491.477 126.043 491.838 126.219 492.361 126.295C492.732 126.349 493.076 126.348 493.392 126.292C493.708 126.236 494.01 126.146 494.3 126.02L494.749 126.42C493.929 126.831 493.004 126.962 491.974 126.813ZM493.964 123.413C493.54 123.351 493.124 123.395 492.716 123.544C492.31 123.691 491.966 123.93 491.684 124.261L494.764 124.707L494.794 124.659C494.97 124.327 494.985 124.052 494.839 123.836C494.695 123.618 494.404 123.477 493.964 123.413Z" fill="black"/>
<path d="M450.238 158.46C449.405 158.16 448.85 157.859 448.572 157.557C448.299 157.254 448.274 156.926 448.495 156.573C448.746 156.173 449.213 155.881 449.895 155.696C450.583 155.509 451.343 155.476 452.177 155.596C452.745 155.679 453.208 155.819 453.567 156.018C453.93 156.218 454.158 156.454 454.252 156.726C454.349 156.998 454.31 157.275 454.133 157.557L453.037 157.398C453.229 157.091 453.221 156.828 453.012 156.607C452.804 156.384 452.411 156.231 451.831 156.147C451.293 156.069 450.827 156.082 450.432 156.184C450.042 156.285 449.766 156.464 449.605 156.722C449.475 156.929 449.507 157.125 449.701 157.31C449.9 157.494 450.305 157.694 450.916 157.912C451.531 158.13 451.987 158.34 452.283 158.54C452.584 158.738 452.768 158.946 452.834 159.163C452.904 159.381 452.858 159.619 452.696 159.877C452.438 160.288 451.97 160.581 451.291 160.753C450.614 160.924 449.837 160.946 448.962 160.819C448.394 160.737 447.905 160.594 447.496 160.39C447.088 160.184 446.822 159.945 446.699 159.674C446.579 159.403 446.612 159.12 446.797 158.825L447.894 158.984C447.702 159.291 447.733 159.56 447.988 159.792C448.249 160.023 448.688 160.183 449.306 160.272C449.881 160.355 450.368 160.347 450.765 160.248C451.163 160.148 451.439 159.974 451.595 159.725C451.751 159.477 451.729 159.264 451.53 159.088C451.332 158.91 450.901 158.701 450.238 158.46Z" fill="black"/>
<path d="M454.268 161.512L453.217 161.359L456.576 156.005L457.627 156.158L454.268 161.512Z" fill="black"/>
<path d="M458.464 162.195C457.631 162.074 457.057 161.809 456.745 161.399C456.433 160.986 456.454 160.498 456.807 159.936L456.881 159.818C457.116 159.443 457.44 159.127 457.855 158.867C458.275 158.606 458.745 158.423 459.266 158.319C459.791 158.212 460.298 158.194 460.787 158.265C461.586 158.381 462.106 158.632 462.347 159.02C462.588 159.407 462.519 159.901 462.142 160.503L461.973 160.772L457.808 160.169C457.59 160.543 457.577 160.869 457.77 161.148C457.968 161.425 458.328 161.601 458.851 161.677C459.222 161.731 459.566 161.73 459.882 161.674C460.198 161.619 460.501 161.528 460.79 161.403L461.24 161.802C460.42 162.213 459.495 162.344 458.464 162.195ZM460.455 158.795C460.03 158.734 459.614 158.777 459.207 158.926C458.801 159.073 458.457 159.312 458.174 159.644L461.254 160.09L461.285 160.041C461.46 159.709 461.475 159.435 461.33 159.218C461.186 159 460.894 158.859 460.455 158.795Z" fill="black"/>
<path d="M464.636 163.089C463.802 162.968 463.229 162.703 462.916 162.292C462.605 161.88 462.625 161.392 462.978 160.83L463.053 160.711C463.287 160.337 463.612 160.02 464.027 159.761C464.447 159.5 464.917 159.317 465.437 159.212C465.963 159.106 466.47 159.088 466.959 159.159C467.758 159.275 468.278 159.526 468.519 159.913C468.759 160.301 468.691 160.795 468.313 161.397L468.145 161.665L463.979 161.062C463.761 161.436 463.749 161.763 463.941 162.041C464.14 162.319 464.5 162.495 465.023 162.571C465.394 162.624 465.738 162.624 466.054 162.568C466.37 162.512 466.672 162.422 466.962 162.296L467.412 162.696C466.592 163.107 465.666 163.238 464.636 163.089ZM466.626 159.689C466.202 159.627 465.786 159.671 465.379 159.82C464.973 159.966 464.628 160.206 464.346 160.537L467.426 160.983L467.457 160.934C467.632 160.602 467.647 160.328 467.501 160.112C467.357 159.893 467.066 159.752 466.626 159.689Z" fill="black"/>
<path d="M474.651 162.451C474.291 163.025 473.786 163.457 473.138 163.746C472.49 164.035 471.8 164.126 471.069 164.02C470.323 163.912 469.827 163.682 469.581 163.329L468.441 165.146L467.39 164.993L470.666 159.772L471.626 159.911L471.415 160.336C472.047 160.073 472.744 159.997 473.505 160.107C474.244 160.214 474.721 160.469 474.934 160.873C475.152 161.277 475.07 161.783 474.688 162.392L474.651 162.451ZM473.645 162.226C473.912 161.801 473.975 161.444 473.834 161.154C473.693 160.865 473.365 160.683 472.85 160.609C472.213 160.517 471.627 160.621 471.092 160.921L469.961 162.723C470.06 163.112 470.433 163.354 471.081 163.448C471.585 163.521 472.061 163.457 472.51 163.255C472.964 163.053 473.342 162.709 473.645 162.226Z" fill="black"/>
<path d="M435.697 195.849L432.111 195.329L430.983 197.128L435.148 197.731L434.805 198.279L429.548 197.517L432.732 192.442L437.932 193.195L437.587 193.746L433.478 193.151L432.454 194.782L436.04 195.301L435.697 195.849Z" fill="black"/>
<path d="M439.795 199.001C439.781 198.918 439.815 198.778 439.896 198.582C439.212 198.823 438.531 198.894 437.853 198.796C437.247 198.708 436.814 198.531 436.555 198.266C436.301 197.998 436.276 197.703 436.478 197.38C436.725 196.987 437.158 196.718 437.779 196.572C438.404 196.424 439.159 196.415 440.041 196.542L441.064 196.69L441.25 196.394C441.392 196.169 441.394 195.974 441.257 195.81C441.122 195.643 440.841 195.529 440.412 195.467C440.037 195.412 439.686 195.425 439.36 195.504C439.033 195.584 438.818 195.706 438.714 195.871L437.657 195.718C437.775 195.53 437.997 195.364 438.322 195.221C438.653 195.076 439.036 194.98 439.471 194.931C439.911 194.883 440.354 194.892 440.801 194.956C441.509 195.059 441.996 195.249 442.26 195.525C442.526 195.799 442.547 196.128 442.324 196.512L441.235 198.247C441.017 198.594 440.917 198.88 440.932 199.105L440.897 199.161L439.795 199.001ZM438.358 198.257C438.688 198.305 439.033 198.298 439.395 198.236C439.756 198.174 440.055 198.069 440.293 197.921L440.778 197.147L439.954 197.028C438.666 196.841 437.877 196.979 437.587 197.442C437.46 197.644 437.47 197.818 437.619 197.963C437.767 198.109 438.014 198.207 438.358 198.257Z" fill="black"/>
<path d="M446.695 194.89L446.122 195.803L447.27 195.969L446.957 196.468L445.809 196.301L444.342 198.64C444.247 198.791 444.227 198.913 444.281 199.004C444.337 199.093 444.488 199.156 444.734 199.191C444.855 199.209 445.031 199.219 445.26 199.222L444.932 199.745C444.626 199.751 444.343 199.736 444.081 199.698C443.612 199.63 443.312 199.491 443.183 199.282C443.053 199.074 443.089 198.809 443.29 198.488L444.758 196.149L443.638 195.987L443.951 195.489L445.07 195.651L445.643 194.737L446.695 194.89Z" fill="black"/>
<path d="M404.958 231.074C404.125 230.774 403.57 230.473 403.292 230.171C403.02 229.868 402.994 229.54 403.216 229.187C403.466 228.787 403.933 228.495 404.615 228.31C405.303 228.123 406.063 228.09 406.897 228.21C407.465 228.293 407.929 228.433 408.287 228.632C408.65 228.832 408.878 229.068 408.972 229.34C409.069 229.612 409.03 229.889 408.853 230.17L407.757 230.012C407.949 229.705 407.941 229.441 407.732 229.221C407.524 228.998 407.131 228.845 406.551 228.761C406.013 228.683 405.547 228.695 405.152 228.798C404.762 228.899 404.486 229.078 404.325 229.336C404.195 229.543 404.227 229.739 404.421 229.924C404.62 230.108 405.025 230.308 405.636 230.526C406.251 230.744 406.707 230.953 407.003 231.154C407.304 231.352 407.488 231.56 407.554 231.777C407.624 231.995 407.578 232.233 407.416 232.491C407.158 232.902 406.69 233.194 406.011 233.367C405.334 233.538 404.557 233.56 403.682 233.433C403.114 233.351 402.625 233.208 402.216 233.004C401.808 232.798 401.542 232.559 401.419 232.288C401.299 232.017 401.332 231.734 401.517 231.439L402.614 231.598C402.422 231.905 402.453 232.174 402.709 232.406C402.969 232.637 403.408 232.797 404.026 232.886C404.601 232.969 405.088 232.961 405.485 232.862C405.883 232.762 406.159 232.588 406.315 232.339C406.471 232.09 406.449 231.878 406.25 231.702C406.052 231.524 405.621 231.315 404.958 231.074Z" fill="black"/>
<path d="M414.197 232.868C413.837 233.442 413.333 233.874 412.685 234.163C412.036 234.451 411.347 234.543 410.616 234.437C409.869 234.329 409.373 234.099 409.127 233.746L407.988 235.562L406.937 235.41L410.212 230.188L411.173 230.328L410.961 230.753C411.594 230.49 412.29 230.413 413.052 230.524C413.791 230.631 414.267 230.886 414.481 231.289C414.698 231.694 414.616 232.2 414.234 232.809L414.197 232.868ZM413.192 232.643C413.459 232.218 413.521 231.86 413.38 231.571C413.239 231.282 412.911 231.1 412.396 231.026C411.76 230.933 411.174 231.037 410.638 231.338L409.508 233.14C409.606 233.529 409.98 233.771 410.627 233.865C411.131 233.938 411.608 233.874 412.056 233.672C412.51 233.469 412.889 233.126 413.192 232.643Z" fill="black"/>
<path d="M415.308 232.945C415.54 232.576 415.866 232.261 416.286 231.999C416.71 231.739 417.182 231.559 417.703 231.459C418.228 231.361 418.761 231.35 419.303 231.429C420.141 231.55 420.705 231.826 420.997 232.256C421.293 232.687 421.256 233.197 420.886 233.787L420.858 233.833C420.627 234.2 420.305 234.513 419.89 234.772C419.48 235.03 419.011 235.209 418.48 235.31C417.954 235.411 417.414 235.422 416.861 235.341C416.028 235.221 415.463 234.945 415.167 234.514C414.875 234.084 414.912 233.576 415.28 232.991L415.308 232.945ZM416.317 233.175C416.055 233.593 416.001 233.952 416.157 234.251C416.316 234.55 416.661 234.738 417.191 234.815C417.726 234.892 418.23 234.826 418.705 234.616C419.181 234.404 419.564 234.066 419.854 233.604C420.114 233.19 420.163 232.832 420.001 232.53C419.845 232.226 419.501 232.035 418.971 231.959C418.452 231.883 417.954 231.949 417.477 232.157C416.999 232.364 416.613 232.703 416.317 233.175Z" fill="black"/>
<path d="M425.995 233.105C425.846 233.066 425.678 233.032 425.493 233.006C424.803 232.906 424.222 233.018 423.75 233.343L422.071 236.02L421.019 235.867L423.385 232.096L424.408 232.244L424.152 232.682C424.708 232.395 425.303 232.297 425.935 232.389C426.14 232.419 426.285 232.457 426.371 232.505L425.995 233.105Z" fill="black"/>
<path d="M429.613 232.001L429.04 232.915L430.188 233.081L429.875 233.579L428.727 233.413L427.26 235.752C427.165 235.903 427.145 236.024 427.199 236.116C427.255 236.205 427.406 236.267 427.652 236.303C427.773 236.321 427.949 236.331 428.178 236.334L427.85 236.857C427.545 236.863 427.261 236.847 427 236.809C426.53 236.741 426.23 236.603 426.101 236.394C425.972 236.185 426.007 235.921 426.209 235.6L427.676 233.261L426.556 233.099L426.869 232.6L427.989 232.762L428.561 231.849L429.613 232.001Z" fill="black"/>
<path d="M191.04 120.838L187.454 120.319L186.326 122.118L190.491 122.721L190.148 123.268L184.891 122.507L188.075 117.432L193.275 118.185L192.93 118.735L188.821 118.141L187.797 119.772L191.383 120.291L191.04 120.838Z" fill="black"/>
<path d="M194.907 121.345L197.134 120.166L198.362 120.343L195.18 121.917L196.058 124.124L194.842 123.948L194.307 122.33L192.001 123.536L190.779 123.359L194.049 121.753L193.207 119.597L194.424 119.773L194.907 121.345Z" fill="black"/>
<path d="M199.51 124.7C198.676 124.579 198.103 124.314 197.79 123.903C197.479 123.491 197.499 123.003 197.852 122.441L197.926 122.322C198.161 121.948 198.486 121.631 198.901 121.372C199.321 121.111 199.791 120.928 200.311 120.823C200.837 120.717 201.344 120.699 201.832 120.77C202.632 120.886 203.152 121.137 203.393 121.524C203.633 121.911 203.565 122.406 203.187 123.008L203.019 123.276L198.853 122.673C198.635 123.047 198.622 123.374 198.815 123.652C199.013 123.929 199.374 124.106 199.897 124.182C200.268 124.235 200.612 124.234 200.928 124.179C201.243 124.123 201.546 124.033 201.836 123.907L202.285 124.307C201.465 124.718 200.54 124.849 199.51 124.7ZM201.5 121.3C201.076 121.238 200.66 121.282 200.252 121.431C199.846 121.577 199.502 121.816 199.22 122.148L202.3 122.594L202.33 122.545C202.506 122.213 202.521 121.939 202.375 121.723C202.231 121.504 201.94 121.363 201.5 121.3Z" fill="black"/>
<path d="M208.149 122.392C208 122.352 207.833 122.319 207.647 122.292C206.957 122.192 206.376 122.305 205.904 122.629L204.225 125.306L203.173 125.154L205.539 121.383L206.562 121.531L206.306 121.969C206.862 121.682 207.457 121.584 208.089 121.676C208.294 121.705 208.439 121.744 208.525 121.792L208.149 122.392Z" fill="black"/>
<path d="M209.757 125.609C210.132 125.664 210.503 125.641 210.871 125.542C211.239 125.444 211.504 125.292 211.665 125.087L212.66 125.231C212.505 125.444 212.255 125.633 211.909 125.795C211.563 125.958 211.166 126.071 210.718 126.132C210.274 126.195 209.843 126.196 209.426 126.136C208.589 126.014 208.03 125.747 207.748 125.334C207.471 124.918 207.519 124.413 207.892 123.818L207.96 123.71C208.19 123.343 208.505 123.033 208.904 122.779C209.303 122.525 209.757 122.348 210.265 122.249C210.777 122.151 211.314 122.143 211.874 122.224C212.564 122.324 213.056 122.533 213.352 122.852C213.652 123.172 213.69 123.536 213.466 123.945L212.472 123.801C212.595 123.552 212.569 123.331 212.393 123.135C212.224 122.939 211.94 122.811 211.542 122.754C211.008 122.676 210.519 122.735 210.074 122.929C209.635 123.121 209.276 123.441 208.996 123.887L208.919 124.009C208.647 124.443 208.583 124.799 208.727 125.076C208.872 125.353 209.215 125.531 209.757 125.609Z" fill="black"/>
<path d="M214.238 126.756L213.187 126.604L215.553 122.832L216.604 122.985L214.238 126.756ZM216.095 121.82C216.161 121.715 216.267 121.634 216.415 121.577C216.566 121.52 216.744 121.507 216.949 121.536C217.153 121.566 217.286 121.625 217.347 121.712C217.408 121.799 217.405 121.895 217.34 122C217.274 122.105 217.167 122.184 217.017 122.238C216.867 122.293 216.69 122.305 216.485 122.275C216.281 122.246 216.147 122.188 216.085 122.103C216.026 122.019 216.03 121.924 216.095 121.82Z" fill="black"/>
<path d="M220.134 126.519C220.243 126.344 220.22 126.194 220.064 126.067C219.913 125.939 219.592 125.801 219.102 125.654C218.615 125.508 218.245 125.363 217.992 125.22C217.742 125.077 217.584 124.928 217.517 124.771C217.454 124.615 217.481 124.444 217.597 124.258C217.791 123.949 218.167 123.718 218.726 123.566C219.288 123.414 219.901 123.386 220.564 123.482C221.261 123.583 221.756 123.775 222.049 124.058C222.347 124.342 222.387 124.656 222.172 125L221.115 124.847C221.225 124.67 221.198 124.5 221.032 124.337C220.869 124.174 220.602 124.066 220.231 124.012C219.849 123.956 219.517 123.964 219.237 124.035C218.957 124.106 218.765 124.224 218.662 124.389C218.564 124.545 218.591 124.677 218.742 124.785C218.893 124.893 219.208 125.021 219.685 125.169C220.167 125.317 220.539 125.465 220.802 125.612C221.065 125.759 221.23 125.914 221.296 126.079C221.368 126.241 221.341 126.423 221.214 126.626C221.002 126.963 220.613 127.201 220.045 127.342C219.479 127.481 218.845 127.499 218.144 127.398C217.652 127.327 217.249 127.21 216.938 127.048C216.626 126.887 216.422 126.695 216.325 126.473C216.234 126.249 216.259 126.026 216.399 125.803L217.45 125.955C217.333 126.174 217.366 126.366 217.547 126.532C217.733 126.696 218.042 126.809 218.474 126.872C218.872 126.929 219.221 126.926 219.521 126.863C219.826 126.799 220.03 126.684 220.134 126.519Z" fill="black"/>
<path d="M224.435 128.309C223.602 128.188 223.029 127.923 222.716 127.512C222.404 127.1 222.425 126.612 222.778 126.05L222.852 125.931C223.087 125.557 223.411 125.24 223.826 124.981C224.246 124.72 224.716 124.537 225.237 124.432C225.762 124.326 226.269 124.308 226.758 124.379C227.557 124.495 228.077 124.746 228.318 125.133C228.559 125.521 228.49 126.015 228.113 126.617L227.944 126.885L223.779 126.282C223.561 126.656 223.548 126.983 223.741 127.261C223.939 127.539 224.299 127.715 224.822 127.791C225.194 127.844 225.537 127.844 225.853 127.788C226.169 127.732 226.472 127.642 226.761 127.516L227.211 127.916C226.391 128.327 225.466 128.458 224.435 128.309ZM226.426 124.909C226.001 124.847 225.585 124.891 225.178 125.04C224.772 125.186 224.428 125.426 224.145 125.757L227.225 126.203L227.256 126.154C227.431 125.822 227.446 125.548 227.301 125.332C227.157 125.113 226.865 124.972 226.426 124.909Z" fill="black"/>
<path d="M169.732 154.361L169.839 158.894L175.142 155.144L176.557 155.349L173.373 160.424L172.282 160.266L173.522 158.29L174.962 156.172L169.668 159.888L168.832 159.767L168.693 155.275L167.469 157.414L166.23 159.39L165.138 159.232L168.322 154.157L169.732 154.361Z" fill="black"/>
<path d="M176.061 158.719C176.293 158.349 176.619 158.034 177.039 157.773C177.463 157.512 177.935 157.332 178.456 157.233C178.981 157.134 179.515 157.124 180.056 157.202C180.894 157.323 181.458 157.599 181.751 158.029C182.047 158.46 182.01 158.97 181.639 159.56L181.611 159.606C181.38 159.973 181.058 160.286 180.643 160.546C180.234 160.803 179.764 160.982 179.234 161.083C178.707 161.184 178.167 161.195 177.614 161.115C176.781 160.994 176.216 160.718 175.92 160.288C175.628 159.857 175.665 159.349 176.033 158.764L176.061 158.719ZM177.07 158.948C176.808 159.367 176.754 159.725 176.91 160.024C177.069 160.323 177.414 160.511 177.944 160.588C178.479 160.666 178.983 160.599 179.458 160.389C179.934 160.177 180.317 159.839 180.608 159.377C180.867 158.963 180.916 158.605 180.754 158.303C180.598 157.999 180.254 157.809 179.724 157.732C179.205 157.657 178.707 157.723 178.23 157.93C177.753 158.137 177.366 158.477 177.07 158.948Z" fill="black"/>
<path d="M184.259 161.046L187.599 158.37L188.674 158.526L184.103 161.978L183.301 161.862L183.439 157.768L184.514 157.923L184.259 161.046Z" fill="black"/>
<path d="M188.461 162.609L187.41 162.457L189.776 158.685L190.827 158.838L188.461 162.609ZM190.318 157.673C190.384 157.568 190.491 157.487 190.638 157.43C190.789 157.373 190.967 157.36 191.172 157.389C191.376 157.419 191.509 157.477 191.57 157.565C191.631 157.652 191.629 157.748 191.563 157.853C191.497 157.957 191.39 158.037 191.24 158.091C191.09 158.146 190.913 158.158 190.708 158.128C190.504 158.099 190.37 158.041 190.308 157.956C190.249 157.872 190.253 157.777 190.318 157.673Z" fill="black"/>
<path d="M192.657 163.293C191.824 163.172 191.25 162.907 190.938 162.496C190.626 162.084 190.647 161.596 191 161.034L191.074 160.915C191.309 160.541 191.633 160.224 192.048 159.965C192.468 159.704 192.938 159.521 193.459 159.416C193.984 159.31 194.491 159.292 194.98 159.363C195.779 159.479 196.299 159.73 196.54 160.117C196.781 160.504 196.712 160.999 196.335 161.601L196.166 161.869L192.001 161.266C191.782 161.64 191.77 161.967 191.963 162.245C192.161 162.523 192.521 162.699 193.044 162.775C193.415 162.828 193.759 162.827 194.075 162.772C194.391 162.716 194.694 162.626 194.983 162.5L195.433 162.9C194.613 163.311 193.688 163.442 192.657 163.293ZM194.648 159.893C194.223 159.831 193.807 159.875 193.4 160.024C192.994 160.17 192.65 160.409 192.367 160.741L195.447 161.187L195.478 161.138C195.653 160.806 195.668 160.532 195.523 160.316C195.379 160.097 195.087 159.956 194.648 159.893Z" fill="black"/>
<path d="M200.529 163.265C200.638 163.091 200.615 162.94 200.459 162.814C200.308 162.686 199.987 162.548 199.496 162.401C199.01 162.254 198.64 162.11 198.387 161.966C198.137 161.824 197.979 161.674 197.912 161.517C197.849 161.361 197.875 161.19 197.992 161.004C198.186 160.695 198.562 160.465 199.121 160.312C199.683 160.16 200.295 160.132 200.958 160.228C201.656 160.329 202.151 160.522 202.444 160.805C202.741 161.089 202.782 161.403 202.566 161.746L201.509 161.593C201.62 161.417 201.592 161.247 201.426 161.083C201.264 160.92 200.997 160.812 200.626 160.758C200.243 160.703 199.912 160.711 199.632 160.782C199.352 160.853 199.16 160.971 199.056 161.136C198.959 161.291 198.986 161.423 199.137 161.531C199.288 161.639 199.603 161.767 200.08 161.915C200.562 162.063 200.934 162.211 201.197 162.358C201.46 162.505 201.625 162.661 201.691 162.825C201.763 162.988 201.735 163.17 201.609 163.372C201.397 163.709 201.008 163.948 200.44 164.089C199.874 164.227 199.24 164.246 198.539 164.144C198.046 164.073 197.644 163.957 197.333 163.795C197.021 163.633 196.817 163.441 196.72 163.219C196.629 162.996 196.653 162.772 196.793 162.549L197.845 162.702C197.728 162.92 197.76 163.113 197.942 163.278C198.128 163.442 198.437 163.556 198.869 163.618C199.267 163.676 199.616 163.673 199.916 163.61C200.221 163.545 200.425 163.43 200.529 163.265Z" fill="black"/>
<path d="M147.445 195.529C147.01 195.735 146.502 195.863 145.921 195.913C145.345 195.961 144.724 195.937 144.057 195.841C143.383 195.743 142.844 195.56 142.443 195.291C142.042 195.02 141.81 194.685 141.747 194.286C141.687 193.887 141.802 193.451 142.09 192.978L142.368 192.535C142.847 191.771 143.509 191.22 144.352 190.883C145.2 190.547 146.15 190.455 147.203 190.608C148.067 190.733 148.677 190.97 149.033 191.318C149.391 191.663 149.472 192.094 149.278 192.608L148.186 192.45C148.403 191.749 147.962 191.318 146.863 191.159C146.132 191.054 145.478 191.131 144.901 191.392C144.329 191.652 143.854 192.08 143.475 192.676L143.215 193.091C142.858 193.661 142.786 194.144 142.999 194.543C143.213 194.939 143.682 195.189 144.406 195.294C144.815 195.353 145.191 195.377 145.532 195.366C145.874 195.355 146.187 195.297 146.471 195.194L147.186 194.054L145.271 193.777L145.612 193.233L148.613 193.668L147.445 195.529Z" fill="black"/>
<path d="M152.483 196.985C152.469 196.901 152.503 196.762 152.585 196.566C151.901 196.806 151.219 196.878 150.541 196.779C149.935 196.692 149.502 196.515 149.243 196.249C148.99 195.982 148.964 195.687 149.167 195.364C149.413 194.971 149.846 194.702 150.467 194.556C151.093 194.408 151.847 194.398 152.73 194.526L153.753 194.674L153.939 194.378C154.08 194.152 154.082 193.958 153.946 193.793C153.811 193.627 153.529 193.512 153.101 193.45C152.726 193.396 152.375 193.409 152.048 193.488C151.721 193.568 151.506 193.69 151.403 193.855L150.346 193.702C150.464 193.513 150.685 193.348 151.011 193.205C151.341 193.06 151.724 192.963 152.16 192.915C152.599 192.867 153.042 192.875 153.489 192.94C154.198 193.043 154.684 193.232 154.949 193.509C155.215 193.783 155.236 194.112 155.012 194.495L153.923 196.231C153.706 196.577 153.605 196.863 153.621 197.088L153.586 197.144L152.483 196.985ZM151.047 196.241C151.376 196.288 151.722 196.281 152.083 196.219C152.444 196.158 152.743 196.053 152.981 195.905L153.466 195.131L152.642 195.011C151.354 194.825 150.565 194.963 150.275 195.425C150.148 195.627 150.159 195.801 150.307 195.947C150.455 196.093 150.702 196.191 151.047 196.241Z" fill="black"/>
<path d="M158.373 193.723L158.139 194.146C158.793 193.886 159.504 193.811 160.269 193.922C161.129 194.046 161.587 194.333 161.644 194.783C161.963 194.631 162.32 194.523 162.716 194.459C163.115 194.395 163.539 194.395 163.986 194.46C165.334 194.655 165.745 195.193 165.218 196.072L163.633 198.599L162.582 198.447L164.143 195.958C164.312 195.688 164.338 195.473 164.22 195.311C164.104 195.148 163.809 195.031 163.335 194.963C162.945 194.906 162.576 194.931 162.228 195.038C161.881 195.143 161.612 195.313 161.418 195.548L159.848 198.051L158.791 197.898L160.342 195.427C160.686 194.878 160.42 194.541 159.545 194.414C158.855 194.314 158.271 194.426 157.791 194.749L156.063 197.503L155.012 197.351L157.378 193.579L158.373 193.723Z" fill="black"/>
<path d="M166.367 198.995L165.315 198.843L167.681 195.071L168.733 195.223L166.367 198.995ZM168.224 194.058C168.289 193.954 168.396 193.873 168.543 193.816C168.694 193.759 168.872 193.745 169.077 193.775C169.282 193.805 169.414 193.863 169.475 193.951C169.536 194.038 169.534 194.134 169.468 194.239C169.403 194.343 169.295 194.423 169.145 194.477C168.995 194.531 168.818 194.544 168.613 194.514C168.409 194.484 168.275 194.427 168.213 194.342C168.154 194.257 168.158 194.163 168.224 194.058Z" fill="black"/>
<path d="M171.415 195.612L171.152 196.091C171.849 195.796 172.576 195.704 173.334 195.814C174.634 196.002 175.007 196.546 174.454 197.447L172.891 199.94L171.839 199.787L173.405 197.292C173.572 197.019 173.596 196.803 173.476 196.644C173.361 196.485 173.093 196.376 172.673 196.315C172.332 196.265 171.997 196.278 171.67 196.352C171.342 196.426 171.049 196.544 170.792 196.704L169.106 199.392L168.054 199.239L170.42 195.468L171.415 195.612Z" fill="black"/>
<path d="M175.429 198.216C175.798 197.628 176.312 197.193 176.973 196.911C177.635 196.626 178.331 196.537 179.063 196.643C179.813 196.752 180.296 196.999 180.512 197.385L180.826 196.974L181.786 197.113L179.477 200.794C179.171 201.282 178.693 201.633 178.043 201.845C177.397 202.058 176.676 202.107 175.88 201.992C175.437 201.928 175.04 201.807 174.688 201.63C174.337 201.452 174.113 201.246 174.016 201.011L174.804 200.703C175.041 201.11 175.485 201.361 176.137 201.455C176.648 201.529 177.101 201.499 177.496 201.363C177.895 201.228 178.195 201 178.396 200.68L178.6 200.356C177.992 200.592 177.325 200.658 176.598 200.552C175.878 200.448 175.406 200.186 175.182 199.766C174.962 199.346 175.044 198.829 175.429 198.216ZM176.44 198.442C176.173 198.867 176.105 199.222 176.236 199.508C176.369 199.79 176.691 199.969 177.202 200.043C177.865 200.139 178.468 200.025 179.011 199.7L180.091 197.978C179.995 197.571 179.625 197.321 178.981 197.228C178.469 197.154 177.993 197.218 177.552 197.42C177.111 197.623 176.74 197.963 176.44 198.442Z" fill="black"/>
<path d="M68.8982 260.807L417.091 311.224L405.522 329.666L57.3291 279.249L68.8982 260.807Z" fill="#E5E5E5"/>
<path d="M79.8067 273.272L76.3401 272.77L74.7306 273.982L73.6053 273.819L79.9489 269.201L80.9037 269.339L80.8852 274.873L79.7657 274.711L79.8067 273.272ZM77.0152 272.267L79.8283 272.674L79.908 270.096L77.0152 272.267Z" fill="#828282"/>
<path d="M82.7812 273.056C83.1442 272.478 83.6593 272.045 84.3265 271.759C84.9952 271.471 85.6913 271.379 86.4149 271.484C87.1348 271.588 87.6102 271.821 87.8412 272.184L89.0745 270.218L90.1259 270.371L86.7671 275.725L85.801 275.585L86.0035 275.173C85.3847 275.428 84.7003 275.501 83.9501 275.393C83.2378 275.29 82.7685 275.027 82.5422 274.603C82.3196 274.181 82.3891 273.681 82.7506 273.105L82.7812 273.056ZM83.7867 273.282C83.5184 273.709 83.4525 274.065 83.5888 274.348C83.7251 274.631 84.0471 274.81 84.5548 274.883C85.2216 274.98 85.8236 274.867 86.3609 274.544L87.4476 272.812C87.3562 272.411 86.9847 272.163 86.333 272.069C85.8178 271.994 85.3397 272.058 84.8987 272.26C84.4576 272.462 84.087 272.803 83.7867 273.282Z" fill="#828282"/>
<path d="M89.3508 274.007C89.7138 273.429 90.2289 272.996 90.8961 272.71C91.5647 272.422 92.2608 272.33 92.9845 272.435C93.7043 272.539 94.1798 272.773 94.4108 273.136L95.6441 271.17L96.6954 271.322L93.3367 276.676L92.3705 276.536L92.5731 276.124C91.9543 276.379 91.2698 276.453 90.5196 276.344C89.8074 276.241 89.3381 275.978 89.1117 275.555C88.8891 275.132 88.9586 274.633 89.3202 274.056L89.3508 274.007ZM90.3562 274.233C90.088 274.661 90.022 275.016 90.1583 275.299C90.2947 275.583 90.6167 275.761 91.1244 275.835C91.7912 275.931 92.3932 275.818 92.9304 275.495L94.0172 273.763C93.9258 273.362 93.5542 273.114 92.9026 273.02C92.3873 272.945 91.9092 273.009 91.4682 273.211C91.0272 273.414 90.6565 273.754 90.3562 274.233Z" fill="#828282"/>
<path d="M104.384 278.276L103.288 278.117L101.575 273.603L99.1219 277.514L98.0251 277.355L101.209 272.28L102.306 272.438L104.018 276.972L106.483 273.043L107.568 273.2L104.384 278.276Z" fill="#828282"/>
<path d="M107.084 276.571C107.316 276.202 107.642 275.887 108.062 275.625C108.485 275.365 108.958 275.185 109.479 275.085C110.004 274.987 110.537 274.976 111.079 275.055C111.916 275.176 112.481 275.452 112.773 275.882C113.069 276.313 113.032 276.823 112.662 277.413L112.634 277.459C112.403 277.826 112.081 278.139 111.666 278.398C111.256 278.656 110.786 278.835 110.256 278.936C109.73 279.037 109.19 279.047 108.637 278.967C107.803 278.847 107.239 278.571 106.943 278.14C106.651 277.71 106.688 277.202 107.055 276.617L107.084 276.571ZM108.093 276.801C107.83 277.219 107.777 277.578 107.933 277.877C108.092 278.176 108.437 278.364 108.967 278.441C109.501 278.518 110.006 278.452 110.481 278.242C110.957 278.03 111.34 277.692 111.63 277.23C111.89 276.816 111.939 276.458 111.777 276.156C111.621 275.852 111.277 275.661 110.747 275.585C110.228 275.509 109.73 275.575 109.252 275.783C108.775 275.99 108.389 276.329 108.093 276.801Z" fill="#828282"/>
<path d="M117.161 275.015L116.588 275.928L117.736 276.095L117.423 276.593L116.275 276.427L114.808 278.766C114.713 278.917 114.693 279.038 114.747 279.13C114.802 279.219 114.953 279.281 115.2 279.317C115.321 279.334 115.496 279.345 115.726 279.347L115.398 279.87C115.092 279.877 114.809 279.861 114.547 279.823C114.077 279.755 113.778 279.617 113.649 279.408C113.519 279.199 113.555 278.934 113.756 278.614L115.224 276.275L114.104 276.113L114.417 275.614L115.536 275.776L116.109 274.863L117.161 275.015Z" fill="#828282"/>
<path d="M119.111 280.484C118.277 280.363 117.704 280.098 117.391 279.687C117.08 279.275 117.1 278.787 117.453 278.225L117.527 278.106C117.762 277.732 118.087 277.415 118.502 277.156C118.922 276.895 119.392 276.712 119.912 276.607C120.438 276.501 120.945 276.483 121.433 276.554C122.233 276.67 122.753 276.921 122.994 277.308C123.234 277.696 123.166 278.19 122.788 278.792L122.62 279.06L118.454 278.457C118.236 278.831 118.223 279.158 118.416 279.437C118.614 279.714 118.975 279.89 119.498 279.966C119.869 280.02 120.213 280.019 120.529 279.963C120.845 279.907 121.147 279.817 121.437 279.691L121.886 280.091C121.066 280.502 120.141 280.633 119.111 280.484ZM121.101 277.084C120.677 277.022 120.261 277.066 119.853 277.215C119.447 277.362 119.103 277.601 118.821 277.932L121.901 278.378L121.931 278.33C122.107 277.998 122.122 277.723 121.976 277.507C121.832 277.289 121.541 277.147 121.101 277.084Z" fill="#828282"/>
<path d="M123.009 280.604C123.079 280.492 123.191 280.407 123.343 280.348C123.5 280.289 123.686 280.276 123.902 280.307C124.118 280.338 124.258 280.399 124.321 280.489C124.388 280.58 124.386 280.681 124.316 280.793C124.249 280.9 124.136 280.981 123.978 281.037C123.823 281.093 123.637 281.105 123.421 281.074C123.205 281.043 123.065 280.983 123 280.895C122.939 280.808 122.942 280.71 123.009 280.604Z" fill="#828282"/>
<path d="M126.078 281.048C126.148 280.936 126.259 280.851 126.412 280.792C126.569 280.734 126.755 280.72 126.971 280.751C127.187 280.783 127.326 280.843 127.39 280.934C127.457 281.024 127.455 281.126 127.385 281.237C127.318 281.344 127.205 281.425 127.046 281.481C126.891 281.537 126.706 281.549 126.49 281.518C126.274 281.487 126.134 281.427 126.069 281.339C126.008 281.252 126.011 281.155 126.078 281.048Z" fill="#828282"/>
<path d="M129.147 281.492C129.217 281.381 129.328 281.295 129.481 281.236C129.638 281.178 129.824 281.164 130.04 281.196C130.256 281.227 130.395 281.288 130.459 281.378C130.526 281.469 130.524 281.57 130.454 281.682C130.387 281.788 130.274 281.87 130.115 281.925C129.96 281.981 129.775 281.994 129.559 281.963C129.343 281.931 129.202 281.872 129.138 281.784C129.077 281.696 129.08 281.599 129.147 281.492Z" fill="#828282"/>
</svg>
