<svg width="482" height="181" viewBox="0 0 482 181" fill="none" xmlns="http://www.w3.org/2000/svg">
<rect width="432.096" height="108.38" transform="matrix(0.97863 0.20563 -0.533322 0.845912 58.47 0.279053)" fill="#E0E0E0"/>
<path d="M113.741 53.9756C115.687 54.3845 117.839 53.8053 118.547 52.6817C119.256 51.5582 118.252 50.3159 116.306 49.907C114.36 49.4981 112.208 50.0773 111.5 51.2009C110.791 52.3244 111.795 53.5667 113.741 53.9756Z" fill="#E36262"/>
<path d="M97.2962 50.5203C99.2424 50.9292 101.394 50.3499 102.103 49.2264C102.811 48.1029 101.808 46.8606 99.8614 46.4516C97.9152 46.0427 95.7633 46.622 95.055 47.7455C94.3466 48.869 95.3501 50.1113 97.2962 50.5203Z" fill="#E36262"/>
<path d="M113.191 40.0371C100.223 37.3123 85.8911 41.1817 81.1712 48.6679C76.4513 56.1542 83.1217 64.4365 96.0895 67.1613C109.081 69.8911 123.436 66.0267 128.156 58.5404C132.876 51.0541 126.182 42.7668 113.191 40.0371ZM97.8231 64.4538C87.4395 62.272 82.0903 55.6496 85.8696 49.6552C89.649 43.6607 101.12 40.5727 111.504 42.7545C121.887 44.9363 127.237 51.5587 123.457 57.5531C119.678 63.5476 108.207 66.6357 97.8231 64.4538ZM91.2072 53.8485C91.0388 57.407 94.1769 60.616 99.5332 61.7414C104.889 62.8669 110.866 61.5732 114.7 58.7847L91.2072 53.8485Z" fill="#E36262"/>
<path d="M72.4241 87.4158C71.7525 87.8036 71.0041 88.043 70.179 88.1341C69.3617 88.2218 68.5046 88.1714 67.6075 87.9829C66.7002 87.7923 66.0101 87.4402 65.5373 86.9268C65.0672 86.4089 64.8524 85.77 64.8928 85.0101C64.9383 84.2513 65.2379 83.4236 65.7916 82.5271L66.3207 81.6878C67.2346 80.2383 68.3328 79.1968 69.6155 78.5632C70.9032 77.9306 72.2555 77.7633 73.6725 78.061C74.8346 78.3052 75.6074 78.7594 75.9909 79.4238C76.3772 80.0837 76.3521 80.9017 75.9157 81.8778L74.4477 81.5693C74.9753 80.2382 74.4999 79.4174 73.0218 79.1068C72.0381 78.9001 71.1025 79.0428 70.215 79.5349C69.3354 80.0236 68.5361 80.8336 67.8171 81.9648L67.3213 82.7512C66.6408 83.8307 66.3846 84.7498 66.5527 85.5086C66.7235 86.2629 67.2957 86.7424 68.2693 86.947C68.8198 87.0626 69.3348 87.111 69.8143 87.092C70.2938 87.073 70.7478 86.9663 71.1763 86.772L72.5387 84.6109L69.9622 84.0695L70.6122 83.0386L74.649 83.8868L72.4241 87.4158ZM75.7819 85.4271C76.2236 84.7266 76.7788 84.1297 77.4476 83.6366C78.1215 83.1445 78.8371 82.8059 79.5946 82.6208C80.3571 82.4368 81.1028 82.4213 81.8317 82.5745C82.9581 82.8112 83.6554 83.3394 83.9236 84.1591C84.1969 84.9799 83.9808 85.9499 83.2753 87.0689L83.2211 87.1549C82.7822 87.851 82.2323 88.4439 81.5714 88.9337C80.9184 89.4202 80.2067 89.7571 79.4363 89.9445C78.671 90.133 77.9162 90.149 77.1721 89.9926C76.0507 89.757 75.3534 89.2288 75.0801 88.408C74.8119 87.5883 75.0278 86.6233 75.7278 85.513L75.7819 85.4271ZM77.1123 85.8713C76.6123 86.6643 76.4225 87.3454 76.5428 87.9145C76.6681 88.4847 77.0876 88.8448 77.8012 88.9947C78.5199 89.1457 79.2435 89.0234 79.9721 88.6276C80.7035 88.2275 81.3456 87.589 81.8984 86.7123C82.3928 85.928 82.5762 85.2481 82.4485 84.6724C82.3286 84.0934 81.9119 83.7289 81.1983 83.579C80.5001 83.4323 79.7854 83.554 79.0545 83.9443C78.3236 84.3346 77.6762 84.9769 77.1123 85.8713ZM84.7119 87.3035C85.1536 86.6029 85.7088 86.0061 86.3776 85.513C87.0515 85.0209 87.7671 84.6823 88.5246 84.4972C89.2871 84.3132 90.0328 84.2977 90.7617 84.4509C91.8881 84.6875 92.5854 85.2158 92.8536 86.0355C93.1269 86.8563 92.9108 87.8262 92.2053 88.9453L92.1511 89.0312C91.7122 89.7273 91.1623 90.3203 90.5014 90.8101C89.8484 91.2966 89.1367 91.6335 88.3663 91.8209C87.601 92.0093 86.8462 92.0254 86.1021 91.869C84.9807 91.6334 84.2834 91.1052 84.0101 90.2844C83.7419 89.4646 83.9578 88.4996 84.6577 87.3894L84.7119 87.3035ZM86.0423 87.7477C85.5423 88.5407 85.3525 89.2218 85.4728 89.7909C85.5981 90.3611 86.0176 90.7212 86.7312 90.8711C87.4499 91.0221 88.1735 90.8997 88.9021 90.504C89.6335 90.1038 90.2756 89.4654 90.8284 88.5886C91.3228 87.8044 91.5062 87.1245 91.3785 86.5488C91.2586 85.9698 90.8419 85.6053 90.1283 85.4554C89.43 85.3086 88.7154 85.4304 87.9845 85.8207C87.2536 86.211 86.6062 86.8533 86.0423 87.7477ZM93.6683 89.1929C94.36 88.0958 95.2162 87.2779 96.2371 86.739C97.2608 86.1956 98.2594 86.0263 99.2329 86.2308C100.201 86.4343 100.788 86.8819 100.993 87.5735L103.343 83.8462L104.757 84.1434L98.3571 94.2944L97.0574 94.0213L97.4719 93.2402C96.5283 93.7205 95.5519 93.8546 94.5427 93.6426C93.5845 93.4412 93.016 92.9376 92.8372 92.1316C92.6635 91.3268 92.9211 90.378 93.61 89.2854L93.6683 89.1929ZM94.9953 89.6288C94.4842 90.4395 94.2779 91.1146 94.3763 91.6542C94.4748 92.1938 94.8656 92.5354 95.5486 92.6789C96.4457 92.8674 97.3201 92.657 98.1718 92.0476L100.243 88.7631C100.245 88.0001 99.8072 87.5265 98.9305 87.3423C98.2373 87.1966 97.5512 87.3144 96.8721 87.6956C96.1931 88.0768 95.5675 88.7213 94.9953 89.6288Z" fill="#E36262"/>
<path d="M143.357 92.8527L142.046 101.468L150.635 94.382L152.539 94.782L146.472 104.404L145.004 104.096L147.367 100.349L150.054 96.3331L141.487 103.357L140.364 103.121L141.617 94.5826L139.224 98.6378L136.862 102.385L135.394 102.076L141.46 92.4542L143.357 92.8527ZM152.192 105.756C151.071 105.52 150.358 105.011 150.055 104.229C149.754 103.442 149.94 102.516 150.612 101.45L150.754 101.225C151.201 100.516 151.755 99.9162 152.416 99.4264C153.085 98.9332 153.798 98.5892 154.556 98.3942C155.322 98.1958 156.034 98.1657 156.691 98.3039C157.766 98.5299 158.409 99.0117 158.62 99.7494C158.83 100.487 158.575 101.427 157.856 102.568L157.535 103.077L151.931 101.899C151.507 102.608 151.384 103.229 151.563 103.76C151.749 104.288 152.194 104.626 152.898 104.774C153.397 104.879 153.876 104.88 154.333 104.776C154.791 104.673 155.242 104.503 155.685 104.267L156.182 105.03C154.908 105.805 153.578 106.047 152.192 105.756ZM156.058 99.3084C155.487 99.1885 154.894 99.2684 154.279 99.5483C153.666 99.8238 153.11 100.276 152.61 100.904L156.754 101.775L156.812 101.682C157.163 101.052 157.272 100.532 157.139 100.119C157.01 99.703 156.649 99.4326 156.058 99.3084ZM162.522 100.659C163.569 100.126 164.594 99.9645 165.598 100.175C167.346 100.543 167.691 101.581 166.631 103.289L163.652 108.014L162.237 107.717L165.221 102.985C165.541 102.468 165.643 102.058 165.529 101.755C165.419 101.453 165.082 101.242 164.516 101.123C164.057 101.027 163.588 101.048 163.108 101.186C162.628 101.325 162.183 101.546 161.772 101.849L158.56 106.944L157.146 106.647L163.545 96.496L164.96 96.7932L162.522 100.659Z" fill="#E330D1"/>
<path d="M205.735 116.856L211.801 107.234L215.44 107.999C216.648 108.253 217.42 108.659 217.754 109.218C218.093 109.779 217.996 110.482 217.463 111.328C217.18 111.777 216.78 112.145 216.265 112.431C215.753 112.712 215.182 112.894 214.553 112.977C215.063 113.248 215.362 113.626 215.45 114.108C215.546 114.587 215.417 115.109 215.061 115.673C214.517 116.536 213.765 117.147 212.807 117.504C211.849 117.862 210.778 117.916 209.596 117.668L205.735 116.856ZM210.04 112.664L207.857 116.127L210.28 116.637C210.963 116.78 211.597 116.741 212.181 116.52C212.773 116.295 213.238 115.914 213.577 115.376C214.308 114.217 213.944 113.485 212.486 113.178L210.04 112.664ZM210.682 111.647L212.899 112.113C213.541 112.247 214.141 112.216 214.698 112.019C215.26 111.823 215.692 111.487 215.992 111.011C216.325 110.482 216.388 110.062 216.181 109.749C215.977 109.431 215.511 109.196 214.782 109.043L212.611 108.587L210.682 111.647ZM220.376 119.933C220.383 119.775 220.475 119.51 220.652 119.138C219.622 119.59 218.651 119.72 217.739 119.528C216.923 119.357 216.378 119.018 216.103 118.511C215.836 118.001 215.895 117.44 216.281 116.827C216.751 116.083 217.441 115.574 218.352 115.302C219.27 115.026 220.324 115.012 221.511 115.262L222.887 115.551L223.241 114.989C223.511 114.562 223.577 114.192 223.44 113.878C223.305 113.561 222.95 113.341 222.374 113.22C221.869 113.114 221.377 113.136 220.896 113.284C220.416 113.433 220.077 113.663 219.88 113.976L218.458 113.677C218.683 113.32 219.045 113.007 219.544 112.738C220.05 112.465 220.615 112.284 221.236 112.195C221.863 112.108 222.477 112.127 223.079 112.253C224.032 112.454 224.648 112.818 224.927 113.345C225.209 113.868 225.133 114.494 224.698 115.22L222.623 118.511C222.209 119.168 221.976 119.71 221.926 120.139L221.859 120.245L220.376 119.933ZM218.616 118.508C219.059 118.601 219.543 118.59 220.065 118.476C220.588 118.361 221.038 118.164 221.417 117.884L222.341 116.417L221.233 116.184C219.5 115.82 218.357 116.076 217.804 116.953C217.563 117.336 217.522 117.667 217.681 117.945C217.841 118.223 218.152 118.41 218.616 118.508ZM225.733 116.942C226.425 115.845 227.281 115.027 228.302 114.488C229.326 113.945 230.324 113.776 231.298 113.98C232.266 114.184 232.853 114.631 233.057 115.323L235.407 111.596L236.822 111.893L230.422 122.044L229.122 121.771L229.537 120.99C228.593 121.47 227.617 121.604 226.608 121.392C225.649 121.191 225.081 120.687 224.902 119.881C224.728 119.076 224.986 118.127 225.675 117.035L225.733 116.942ZM227.06 117.378C226.549 118.189 226.343 118.864 226.441 119.404C226.54 119.943 226.93 120.285 227.613 120.428C228.511 120.617 229.385 120.406 230.237 119.797L232.308 116.513C232.309 115.75 231.872 115.276 230.995 115.092C230.302 114.946 229.616 115.064 228.937 115.445C228.258 115.826 227.632 116.471 227.06 117.378Z" fill="#D5E14B"/>
<path d="M271.33 130.639L269.854 130.329L272.658 125.882L267.046 124.702L264.242 129.15L262.774 128.842L268.841 119.219L270.309 119.528L267.7 123.665L273.312 124.844L275.921 120.707L277.396 121.017L271.33 130.639ZM278.822 132.214C278.83 132.056 278.922 131.791 279.098 131.419C278.069 131.871 277.098 132.001 276.185 131.809C275.37 131.638 274.824 131.299 274.549 130.792C274.282 130.282 274.342 129.721 274.728 129.108C275.197 128.364 275.887 127.855 276.798 127.582C277.717 127.306 278.77 127.293 279.958 127.543L281.334 127.832L281.688 127.27C281.957 126.843 282.023 126.472 281.886 126.159C281.752 125.841 281.396 125.622 280.82 125.501C280.316 125.395 279.823 125.416 279.343 125.565C278.863 125.713 278.524 125.944 278.327 126.257L276.904 125.958C277.129 125.601 277.491 125.288 277.99 125.019C278.497 124.746 279.061 124.565 279.683 124.476C280.31 124.388 280.924 124.408 281.525 124.534C282.478 124.734 283.095 125.098 283.374 125.626C283.656 126.149 283.579 126.774 283.144 127.501L281.069 130.792C280.655 131.449 280.423 131.991 280.372 132.42L280.305 132.525L278.822 132.214ZM277.063 130.789C277.506 130.882 277.989 130.871 278.512 130.756C279.034 130.642 279.485 130.444 279.863 130.165L280.788 128.698L279.679 128.465C277.946 128.1 276.803 128.357 276.251 129.234C276.009 129.617 275.968 129.947 276.128 130.225C276.287 130.503 276.599 130.691 277.063 130.789ZM291.424 130.902C290.738 131.991 289.897 132.807 288.902 133.351C287.907 133.895 286.917 134.064 285.933 133.858C284.929 133.647 284.313 133.205 284.084 132.533L281.913 135.977L280.499 135.679L286.74 125.78L288.032 126.051L287.601 126.859C288.566 126.363 289.561 126.223 290.585 126.438C291.579 126.647 292.16 127.135 292.328 127.904C292.5 128.674 292.223 129.636 291.495 130.79L291.424 130.902ZM290.097 130.467C290.606 129.66 290.808 128.982 290.705 128.431C290.602 127.881 290.204 127.533 289.511 127.387C288.654 127.207 287.805 127.4 286.963 127.967L284.809 131.384C284.821 132.124 285.263 132.587 286.134 132.77C286.812 132.912 287.496 132.794 288.185 132.415C288.882 132.032 289.52 131.383 290.097 130.467ZM300.217 132.75C299.531 133.838 298.69 134.654 297.694 135.199C296.699 135.743 295.709 135.912 294.726 135.705C293.722 135.494 293.105 135.053 292.876 134.381L290.706 137.824L289.291 137.527L295.533 127.627L296.825 127.899L296.394 128.706C297.359 128.21 298.353 128.07 299.378 128.285C300.372 128.494 300.952 128.983 301.12 129.752C301.293 130.521 301.015 131.483 300.287 132.638L300.217 132.75ZM298.89 132.314C299.398 131.508 299.601 130.829 299.498 130.279C299.394 129.728 298.996 129.38 298.303 129.234C297.447 129.055 296.598 129.248 295.756 129.814L293.601 133.231C293.613 133.972 294.055 134.434 294.927 134.617C295.605 134.76 296.288 134.641 296.977 134.262C297.675 133.88 298.312 133.23 298.89 132.314ZM303.561 135.384L308.867 130.429L310.38 130.747L301.851 138.302C300.586 139.384 299.393 139.807 298.271 139.571L298.016 139.495L297.543 139.298L298.168 138.307L298.533 138.414C299.013 138.514 299.437 138.509 299.808 138.397C300.184 138.286 300.599 138.027 301.052 137.618L301.824 136.957L303.331 129.266L304.876 129.59L303.561 135.384Z" fill="#8FED30"/>
<path d="M346.324 141.54C345.262 140.963 344.586 140.386 344.297 139.812C344.015 139.234 344.085 138.61 344.507 137.94C344.985 137.182 345.728 136.63 346.738 136.283C347.755 135.933 348.824 135.876 349.946 136.111C350.71 136.272 351.31 136.543 351.745 136.924C352.186 137.306 352.427 137.756 352.47 138.273C352.518 138.792 352.374 139.319 352.038 139.852L350.562 139.542C350.929 138.96 351.002 138.459 350.783 138.039C350.566 137.614 350.067 137.32 349.287 137.156C348.563 137.004 347.91 137.023 347.327 137.215C346.753 137.404 346.311 137.743 346.003 138.232C345.755 138.624 345.737 138.997 345.947 139.35C346.165 139.7 346.664 140.085 347.445 140.503C348.231 140.923 348.798 141.324 349.146 141.706C349.501 142.085 349.69 142.482 349.712 142.895C349.739 143.31 349.598 143.762 349.29 144.251C348.798 145.031 348.052 145.583 347.052 145.906C346.054 146.226 344.966 146.262 343.789 146.014C343.024 145.853 342.39 145.578 341.886 145.188C341.384 144.793 341.091 144.337 341.007 143.821C340.928 143.305 341.065 142.767 341.418 142.208L342.893 142.518C342.527 143.1 342.484 143.612 342.764 144.055C343.053 144.495 343.612 144.802 344.443 144.977C345.218 145.139 345.898 145.128 346.483 144.941C347.068 144.755 347.509 144.426 347.806 143.954C348.103 143.483 348.141 143.079 347.92 142.743C347.702 142.403 347.17 142.002 346.324 141.54ZM354.522 148.12C354.53 147.962 354.622 147.697 354.799 147.325C353.769 147.777 352.798 147.907 351.885 147.715C351.07 147.544 350.525 147.205 350.25 146.698C349.983 146.188 350.042 145.627 350.428 145.014C350.898 144.27 351.588 143.761 352.498 143.488C353.417 143.212 354.47 143.199 355.658 143.449L357.034 143.738L357.388 143.176C357.658 142.749 357.724 142.379 357.586 142.065C357.452 141.748 357.097 141.528 356.521 141.407C356.016 141.301 355.523 141.322 355.043 141.471C354.563 141.62 354.224 141.85 354.027 142.163L352.605 141.864C352.83 141.507 353.192 141.194 353.69 140.925C354.197 140.652 354.761 140.471 355.383 140.382C356.01 140.295 356.624 140.314 357.225 140.44C358.179 140.64 358.795 141.004 359.074 141.532C359.356 142.055 359.279 142.68 358.844 143.407L356.769 146.698C356.355 147.355 356.123 147.897 356.072 148.326L356.006 148.431L354.522 148.12ZM352.763 146.695C353.206 146.788 353.689 146.777 354.212 146.662C354.734 146.548 355.185 146.351 355.563 146.071L356.488 144.604L355.379 144.371C353.647 144.007 352.504 144.263 351.951 145.14C351.709 145.523 351.668 145.854 351.828 146.132C351.987 146.41 352.299 146.597 352.763 146.695ZM359.88 145.129C360.571 144.032 361.428 143.214 362.449 142.675C363.472 142.132 364.471 141.963 365.444 142.167C366.413 142.371 366.999 142.818 367.204 143.51L369.554 139.783L370.968 140.08L364.569 150.231L363.269 149.958L363.683 149.177C362.74 149.657 361.763 149.791 360.754 149.579C359.796 149.378 359.228 148.874 359.049 148.068C358.875 147.263 359.133 146.314 359.822 145.222L359.88 145.129ZM361.207 145.565C360.696 146.376 360.489 147.051 360.588 147.591C360.686 148.13 361.077 148.472 361.76 148.615C362.657 148.804 363.532 148.593 364.383 147.984L366.454 144.699C366.456 143.936 366.019 143.463 365.142 143.279C364.449 143.133 363.763 143.251 363.084 143.632C362.405 144.013 361.779 144.658 361.207 145.565Z" fill="#47DDE7"/>
<path fill-rule="evenodd" clip-rule="evenodd" d="M164.84 79.6872C170.291 80.8327 176.308 80.6811 181.566 79.2656C186.824 77.8501 190.893 75.2868 192.877 72.1395C194.861 68.9922 194.599 65.5188 192.147 62.4833C189.695 59.4479 185.255 57.099 179.803 55.9535C174.351 54.808 168.335 54.9596 163.077 56.3751C157.819 57.7906 153.75 60.3539 151.766 63.5012C149.781 66.6484 150.044 70.1219 152.496 73.1574C154.948 76.1928 159.388 78.5417 164.84 79.6872ZM163.771 81.3825C170.001 82.6916 176.878 82.5183 182.887 80.9006C188.896 79.283 193.546 76.3534 195.814 72.7565C198.082 69.1597 197.781 65.19 194.979 61.7209C192.177 58.2518 187.103 55.5674 180.872 54.2582C174.641 52.9491 167.765 53.1224 161.756 54.7401C155.747 56.3577 151.097 59.2872 148.829 62.8841C146.561 66.481 146.862 70.4507 149.664 73.9198C152.466 77.3889 157.54 80.0733 163.771 81.3825Z" fill="#E330D1"/>
<path fill-rule="evenodd" clip-rule="evenodd" d="M157.903 69.5904C158.045 69.3656 158.336 69.1825 158.711 69.0814C159.087 68.9803 159.517 68.9695 159.906 69.0513L180.462 73.3705C180.851 73.4523 181.168 73.6201 181.343 73.8369C181.519 74.0537 181.537 74.3018 181.396 74.5266C181.254 74.7514 180.963 74.9345 180.588 75.0356C180.212 75.1367 179.782 75.1475 179.393 75.0657L158.837 70.7465C158.448 70.6647 158.131 70.4969 157.955 70.2801C157.78 70.0633 157.762 69.8152 157.903 69.5904ZM162.179 62.8093C162.32 62.5845 162.611 62.4014 162.986 62.3003C163.362 62.1992 163.792 62.1884 164.181 62.2702L170.054 63.5043C170.444 63.5861 170.761 63.7539 170.936 63.9707C171.111 64.1875 171.13 64.4356 170.988 64.6604C170.846 64.8852 170.556 65.0683 170.18 65.1694C169.805 65.2705 169.375 65.2814 168.985 65.1995L163.112 63.9655C162.723 63.8837 162.406 63.7159 162.231 63.4991C162.056 63.2823 162.037 63.0341 162.179 62.8093ZM176.861 65.8945C177.003 65.6697 177.294 65.4866 177.669 65.3855C178.045 65.2844 178.474 65.2735 178.864 65.3554L184.737 66.5894C185.126 66.6712 185.444 66.839 185.619 67.0558C185.794 67.2726 185.813 67.5207 185.671 67.7455C185.529 67.9704 185.238 68.1534 184.863 68.2546C184.487 68.3557 184.058 68.3665 183.668 68.2847L177.795 67.0506C177.406 66.9688 177.089 66.801 176.913 66.5842C176.738 66.3674 176.719 66.1193 176.861 65.8945Z" fill="#E330D1"/>
<path d="M249.057 82.4081C251.003 82.817 253.155 82.2377 253.863 81.1142C254.571 79.9907 253.568 78.7484 251.622 78.3395C249.676 77.9305 247.524 78.5098 246.815 79.6334C246.107 80.7569 247.11 81.9992 249.057 82.4081Z" fill="#D5E14B"/>
<path d="M232.612 78.9528C234.558 79.3617 236.71 78.7824 237.418 77.6589C238.127 76.5354 237.123 75.2931 235.177 74.8841C233.231 74.4752 231.079 75.0545 230.371 76.178C229.662 77.3015 230.666 78.5438 232.612 78.9528Z" fill="#D5E14B"/>
<path d="M248.506 68.4696C235.538 65.7448 221.207 69.6142 216.487 77.1004C211.767 84.5867 218.437 92.869 231.405 95.5938C244.396 98.3236 258.752 94.4591 263.471 86.9729C268.191 79.4866 261.497 71.1993 248.506 68.4696ZM233.139 92.8863C222.755 90.7045 217.406 84.0821 221.185 78.0877C224.965 72.0932 236.436 69.0052 246.82 71.187C257.203 73.3688 262.552 79.9912 258.773 85.9856C254.994 91.9801 243.522 95.0681 233.139 92.8863ZM238.269 84.7491C232.795 83.5989 226.881 84.5831 223.248 86.9685L227.172 87.7928C229.81 86.5195 233.51 86.0528 236.986 86.7834C240.463 87.5139 242.754 89.2394 243.381 91.1988L247.304 92.0232C247.178 88.848 243.743 85.8992 238.269 84.7491Z" fill="#D5E14B"/>
<path d="M316.714 96.6244C318.661 97.0333 320.813 96.4541 321.521 95.3305C322.229 94.207 321.226 92.9647 319.28 92.5558C317.333 92.1469 315.182 92.7261 314.473 93.8497C313.765 94.9732 314.768 96.2155 316.714 96.6244Z" fill="#8FED30"/>
<path d="M300.27 93.1691C302.216 93.578 304.368 92.9987 305.076 91.8752C305.785 90.7517 304.781 89.5094 302.835 89.1004C300.889 88.6915 298.737 89.2708 298.029 90.3943C297.32 91.5179 298.324 92.7601 300.27 93.1691Z" fill="#8FED30"/>
<path d="M316.164 82.6859C303.196 79.9611 288.865 83.8305 284.145 91.3168C279.425 98.803 286.095 107.085 299.063 109.81C312.054 112.54 326.41 108.675 331.129 101.189C335.849 93.7029 329.155 85.4156 316.164 82.6859ZM300.797 107.103C290.413 104.921 285.064 98.2984 288.843 92.304C292.623 86.3095 304.094 83.2215 314.478 85.4033C324.861 87.5851 330.21 94.2075 326.431 100.202C322.652 106.196 311.18 109.284 300.797 107.103ZM302.934 103.712C308.408 104.862 314.323 103.878 317.955 101.493L314.032 100.668C311.393 101.942 307.694 102.408 304.217 101.678C300.74 100.947 298.449 99.2218 297.822 97.2624L293.899 96.438C294.025 99.6132 297.461 102.562 302.934 103.712Z" fill="#8FED30"/>
<path d="M383.822 96.9021C370.854 94.1773 356.522 98.0467 351.803 105.533C347.083 113.019 353.753 121.302 366.721 124.026C379.712 126.756 394.067 122.892 398.787 115.405C403.507 107.919 396.813 99.6318 383.822 96.9021ZM368.454 121.319C358.071 119.137 352.722 112.515 356.501 106.52C360.28 100.526 371.752 97.4377 382.135 99.6195C392.519 101.801 397.868 108.424 394.089 114.418C390.309 120.413 378.838 123.501 368.454 121.319ZM384.372 110.841C386.322 111.25 388.469 110.672 389.179 109.547C389.888 108.421 388.887 107.182 386.937 106.772C384.987 106.362 382.841 106.94 382.131 108.066C381.421 109.192 382.422 110.431 384.372 110.841ZM367.928 107.385C369.877 107.795 372.024 107.217 372.734 106.091C373.444 104.966 372.443 103.726 370.493 103.317C368.543 102.907 366.396 103.485 365.686 104.611C364.977 105.736 365.978 106.976 367.928 107.385ZM373.585 113.182C368.111 112.031 362.211 113.034 358.587 115.406L382.597 120.451C382.462 117.289 379.058 114.332 373.585 113.182Z" fill="#47DDE7"/>
</svg>
